<?xml version="1.0" standalone="no"?><!DOCTYPE svg PUBLIC "-//W3C//DTD SVG 1.1//EN" "http://www.w3.org/Graphics/SVG/1.1/DTD/svg11.dtd"><svg class="icon" width="200px" height="200.00px" viewBox="0 0 1024 1024" version="1.1" xmlns="http://www.w3.org/2000/svg"><path d="M209.318 715.329c16.743-21.805 28.749-19.975 39.028-23.163 79.023-24.471 115.131-71.11 115.215-153.541 0.039-35.542 10.688-69.535 14.335-110.347-33.428 14.322-52.318 39.962-80.308 52.228-76.044 33.336-140.537 13.374-172.375-56.348-30.981-67.822-0.467-146.858 70.009-176.697 65.674-27.801 131.556-22.032 190.805 14.952 46.517 29.021 81.346 27.191 124.767-8.021 68.226-55.336 132.529-34.044 171.208 44.2 37.593 76.031 27.814 149.739 0.907 224.804-9.046 25.219-30.571 35.979-62.104 45.453 62.974 41.474 118.42 74.707 189.11 70.994 44.344-2.335 87.731 4.804 132.289 20.352-11.356 29.981-33.615 20.812-50.853 18.542-16.717-2.208-36.782-4.511-37.418 14.347-1.355 40.496-27.769 36.882-50.105 30.027-129.388-39.696-259.185-79.944-327.896-213.33-2.895-5.633-6.256-11.025-9.656-16.983-25.958 24.707-19.56 49.794-16.172 73.144 12.052 83.209-41.539 130.485-95.564 177.651-11.207 9.792-24.946 8.351-37.704 3.549-32.506-12.242-64.954-24.675-107.518-31.813z" fill="#E88C89" /><path d="M232.771 347.159c0.208-56.141 25.036-75.038 74.357-57.4 16.314 5.841 32.37 14.251 46.27 24.55 24.998 18.508 26.14 37.593 5.296 60.566-7.269 8.014-16.393 14.484-25.193 20.948-21.837 16.022-39.274 49.301-72.183 31.429-31.292-16.996-26.444-52.331-28.547-80.093z" fill="#D72A1E" /><path d="M562.828 356.887c-1-7.347-2.707-13.894-2.647-20.429 0.232-23.766 12.29-31.319 31.901-18.859 20.858 13.258 38.146 30.618 43.409 55.966 4.912 23.648 10.571 48.087-3.953 70.438-5.196 7.995-15.23 9.721-23.361 4.198-23.726-16.1-48.606-31.935-48.049-65.771 0.143-8.768 1.816-17.51 2.7-25.543z" fill="#D82B22" /></svg>