<?xml version="1.0" standalone="no"?><!DOCTYPE svg PUBLIC "-//W3C//DTD SVG 1.1//EN" "http://www.w3.org/Graphics/SVG/1.1/DTD/svg11.dtd"><svg class="icon" width="200px" height="200.00px" viewBox="0 0 1024 1024" version="1.1" xmlns="http://www.w3.org/2000/svg"><path d="M390.38 502.54c8.2-4.48 17.72-10.08 12.23-20.61-5.36-10.29-16.13-1.09-22.73 2.29-10.38 5.32-21.34 8.59-28.84 17.5-2.34-9.97-4.45-19.98-5.78-30.15 0.57 0.11 1.27 0.55 2.55 0.86 6.25 1.5 11.68 4.26 18.34 4.78 8.94 0.7 25.57 2.78 29.25-8.1 0.42-1.23-0.31-2.41-1.26-3.1-10.49-7.61-22.48-11.11-35.05-10.61 3.6-3.57 7.45-6.77 10.05-11.49 2.78-5.06 4.87-11.03 6.32-16.59 2.21-8.43 1.54-18.86-8.84-20.8-10.12-1.89-17.08 6.53-20.8 14.76-2.15 4.76-3.73 9.83-4.88 14.97-1.26-6.3-2.87-12.55-4.99-18.88-0.7-2.09-1.42-4.18-2.14-6.26-0.01-0.1 0-0.2-0.02-0.31l-0.12-0.75c0.31-0.07 0.63-0.19 0.95-0.41 9.55-6.41 19.11-12.79 28.65-19.23 4.81-3.25 9.96-6.2 10.74-12.41 0.51-4.06-1.19-11.37-5.63-13.09-5.18-2.01-14.93 4.23-18.82 7.01-6.51 4.66-9.55 11.62-12.96 18.62-1.17 2.41-2.21 5.52-3.74 7.67-0.28 0.39-0.52 0.72-0.76 1.04-0.99-7.22-2.01-14.49-3.76-21.43-1.19-4.7-3.14-8.6-8.38-8.7-1.97-0.04-2.89 1.77-2.65 3.47 1.27 8.99 3.69 17.61 6.48 26.15-9.99-4.15-20.17-7.71-30.67-10.35-5.27-1.32-13.9-4.54-17.98 1.03-3.11 4.24-1.04 10.33 2.87 13.27 6.17 4.65 15.84 2.38 22.9 2.43 5.94 0.05 11.86 0.46 17.75 1.24 2.11 0.28 5.3 1.26 8.29 1.71 0.89 2.56 1.78 5.12 2.66 7.69 4.55 13.25 6.98 25.95 8.44 39.46-0.38 2.01-0.89 3.98-1.64 5.89-2.47-7.98-5.33-15.92-9.76-23-3.47-5.54-10.36-15.58-17.88-15.28-18.71 0.74 1.98 31.16 9.79 42.5-14.23 1.46-28.37 3.92-42.15 7.83-7.64 2.17-19.87 6.63-16.08 17.03 3.76 10.34 16 8.49 24.01 5.41 11.97-4.61 23.85-9.66 35.52-15.06-3.37 6.84-4.45 14.99-0.47 21.54 5.97 9.81 13.96 0.89 15.94-6.4 1.2-4.41 2.3-8.8 3.84-13.11 0.47-1.32 0.93-2.8 1.44-4.25 2.66 16.89 7.36 33.39 11.18 50.06-0.04-0.05-0.07-0.1-0.12-0.14-9.96-9.67-19.76-10.23-32.86-10.53-7.25-0.17-22.26-7.36-24.72 4.43-4.49 21.58 43.94 16.38 59.37 13.87 1.58 7.6 2.9 15.26 3.65 23.03 0.34 3.48 5.83 3.52 5.49 0-0.85-8.8-2.39-17.46-4.22-26.07-0.02-0.3-0.09-0.6-0.19-0.89-1.51-6.99-3.19-13.94-4.88-20.9 12.92 0.35 25.66-2.41 37.07-8.64z" fill="#3E4216" /><path d="M433.8 461.58c9.99-2.12 19.33-6.09 27.6-12.39 6.36-4.84 16.77-13.87 9.52-22.4-6.88-8.09-18.42-2.53-25.33 2.25-7.79 5.39-13.76 12.49-18.13 20.67-0.24-4.2-0.47-8.41-0.68-12.61 0.35-0.75 0.26-1.47-0.1-2.05-0.16-3.38-0.31-6.76-0.44-10.14 4.88-1.21 9.68-3.21 13.91-4.95 11.58-4.77 24.15-11.62 32.32-21.42 4.99-5.99 10.56-18.3 2.73-24.63-8.69-7.03-20.92 4.95-27.93 9.13-4.78 2.85-9.43 5.81-13.07 10.1-3.16 3.73-5.17 8.26-8.42 11.67-0.09-12.76 0.27-25.52 1.37-38.29 0.06-0.65-0.09-1.18-0.36-1.59 10.44-1.23 21.24-5.37 30.48-9.36 8.41-3.63 19.86-10.57 18.83-21.47-1.9-19.96-38.78 6.47-51.08 15.35-4.66-7.88-16.28-12.7-23.28-17.29-5.02-3.29-16.73-12.11-22.05-4.54-5.32 7.58 3.88 16.11 9.06 20.27 9.23 7.43 19.23 17.31 31.78 17.4 0.51 0 1.02-0.01 1.54-0.03-0.21 0.35-0.35 0.76-0.4 1.24-1.16 13.44-1.49 26.87-1.35 40.29-3.31-4.71-6.68-9.38-10.23-13.92-3.17-4.05-7.06-10.85-12.35-12.62-8.6-2.89-12.74 6.95-11.82 13.9 1.44 10.83 12.77 22.74 21.28 28.64 4.11 2.85 8.8 3.53 13.59 3.06l0.06 1.49c-0.77 0.23-1.46 0.76-1.83 1.66-2.99 7.18-46.46 16.46-34.65 29.61 4.76 5.3 15.26 1.44 20.28-1.22 6.51-3.45 12.14-8.27 16.99-13.77 1.37 25.08 3.32 50.16 3.65 75.25-3.56-1.78-7.09-3.62-10.49-5.69-3.02-1.84-5.9-4.41-9.3-5.5-5.39-1.73-12.21-1.55-12.94 4.98-0.87 7.79 5.48 8.51 11.15 10.84 7.53 3.09 13.04 9.07 21.6 7.18-0.09 8.99-0.42 17.97-1.11 26.96-0.27 3.52 5.22 3.5 5.49 0 2.12-27.3 0.95-54.57-0.65-81.84 4.03 10.26 11.08 23.98 18.98 17.08 11.23-9.78-4.66-23.73-14.22-31.3z" fill="#3E4216" /><path d="M512.92 473.25c4.87-1.29 8.28-4.12 8.75-9.38 0.33-3.77-1.15-8.9-5.3-10.02-5.91-1.58-15.91 3.56-20.9 6.56-4.08 2.45-6.91 5.64-8.22 9.72a3.79 3.79 0 0 0-0.72-0.18c1.73-8.69 4.34-17.08 8.61-25.28 2.44 2.71 5.62 4.31 10.15 3.47 4.96-0.92 9.91-3.43 14.53-5.45 5.63-2.47 14.56-5.54 18.87-10.23 4.31-4.68 1.89-10.16-3.98-12.06-5.04-1.63-10.21 0.54-14.83 2.35-6.96 2.74-13.42 5.17-20.62 6.5 2.34-10.11 8.5-19.25 8.75-29.82 0.17-7.08-3.05-16.37-11.28-17.09-8.66-0.76-13.14 8.83-14.56 15.9-2.28 11.42 1.29 22.89 5.94 33.22 1.13 2.52 2.26 5.37 3.61 8.01-4.67 8.2-7.76 16.66-9.83 25.48-6.24-6.65-15.3-13.99-19-6.26-2.02 4.23-0.81 10.63 0.84 14.75 2.66 6.64 7.95 11.36 13.48 15.65 0.34 0.27 0.71 0.44 1.07 0.54l-1.5 18.17c-1.7-2.44-4.13-4.52-6.77-6.44-4.43-3.22-12.38-5.46-17.43-2.19-5.34 3.46-2.34 9.75 1.32 13 5.91 5.24 13.28 8.63 20.94 10.35 0.25 0.06 0.49 0.07 0.72 0.07-0.98 11.81-1.95 23.63-2.93 35.44-0.29 3.52 5.2 3.5 5.49 0l2.13-25.77c8.44 0.12 17.19 0.75 25.52-0.06 4.44-0.43 10.12-2.94 9.16-8.49-0.79-4.57-5.91-6.04-9.84-5-4.01 1.06-7.32 3.91-11.29 5.21-4.26 1.39-8.58 1.75-12.98 1.45l2.43-29.44c0.43-5.24 0.9-10.35 1.55-15.35 0.18 0.23 0.4 0.41 0.63 0.56 0.08 0.09 0.15 0.17 0.24 0.26 6.43 5.51 12.05 13.08 18.98 17.84 3.66 2.51 8.76 3.74 12.47 0.55 3.04-2.6 3.32-7.04 1.95-10.56-1.36-3.51-4.3-6.29-6.76-9.03-1.24-1.38-4.27-3.59-3.98-5.33 0.27-1.47 3.45-1.31 4.59-1.62z" fill="#3E4216" /><path d="M605.99 493.63c6.09-7.34 0.02-16.1-9-15.16-10.44 1.08-21.12 9.52-29.17 17.11 0.51-7.02 0-13.93-0.79-20.96 7.57 0.25 14.23-1.03 20.52-5.54 3.39-2.44 6.4-5.39 9.88-7.7 3.53-2.35 7.63-3.9 10.87-6.7 8.37-7.22 7.29-19.9-4.56-22.34-6.95-1.43-13.12 2.3-18.41 6.37-6.88 5.3-13.43 11.08-19.99 16.8-0.13-2.91-0.22-5.83-0.28-8.75 0.26-0.82 0.74-4.61-0.08-5.24-0.02-1.42-0.03-2.84-0.04-4.27-0.03-4.33-0.26-8.64-0.59-12.94 3.12 2.01 6.1 4.42 9.84 4.55 5.23 0.19 9.38-4.68 8.89-9.88-0.29-3.03-2.05-5.36-4.7-6.76-1.64-0.87-3.51-1.02-5.29-1.35-0.86-0.16-2.18-0.06-2.82-0.4-2.51 0.32-2.86-0.54-1.04-2.56 0.17-1.56 0.94-2.54 2.33-2.93 4-3.27 9.69-4.68 13.9-7.95 3.98-3.1 7.5-6.81 10.36-10.98 2.8-4.08 8.78-12.92 1.55-15.91-7.92-3.28-18.65 1.87-22.98 8.41-3.71 5.61-6.83 10.23-11.6 15.07-0.75 0.77-1.42 1.53-2.03 2.3-0.96-5.88-1.98-11.77-2.96-17.65 1.6-0.95 3.19-2.05 4.76-3.13 5.32-3.63 18.65-9.57 19.75-17.11 0.87-6-6.64-6.4-11.02-6.15-3.08 0.17-6.09 1.09-8.4 3.2-3.37 3.07-4.75 11.64-9.07 13.76-0.75-8.74-0.33-20.58-5.52-27.64-3.05-4.15-10.52-10.16-15.9-6.79-13.07 8.19 3.77 37.2 11.19 43.73 3.08 2.71 6.1 3.13 9.06 2.39 1.23 7.31 2.49 14.61 3.61 21.92-3.61-2.64-6.42-6.78-9.87-9.37-3.63-2.72-8.88-5.86-13.51-6.38-7.31-0.82-8.45 7.16-6.51 12.74 2.73 7.88 11.48 15.91 18.93 19.34 4.34 2 8.92 1.81 13.4 2.95 0.17 1.94 0.3 3.88 0.42 5.82-0.06 0.04-0.11 0.06-0.17 0.1-6.76 4.89-35.7 19.79-26.64 32.38 5.77 8.02 17.31 0.11 25.37-7.12-1.23 5.69-1.71 11.74-0.2 16.63 0.85 2.74 2.15 3.91 4.01 4.47 0.68 5.72 1.26 11.42 1.16 17.16-3.4-8.13-9.27-15.6-17.34-18.85-6.41-2.58-16.44 0.43-13.51 9.19 1.95 5.83 9.58 10.79 13.99 14.61 1.87 1.62 3.77 3.2 5.72 4.72 5.16 4.01 7.25 6.23 7.7 13.27 0.01 0.17 0 0.34 0.01 0.51-8.1-8.88-26.02-15.13-34.53-7.39-3.5 3.18-4.5 10.28 0.03 12.84 3.2 1.82 8.96 1.71 12.69 2.07 6.24 0.61 12.49 0.6 18.74 0.21 0.57-0.04 1.04-0.22 1.43-0.49 0.26 0.55 0.65 0.95 1.1 1.21-1.96 12.11-7.88 23.59-3.5 36.13 1.16 3.31 6.46 1.89 5.29-1.46-3.98-11.38 1.39-22.34 3.26-33.58 0.51-3.04 1.24-7.02 1.4-10.9 1.45 0.31 3.16 0.33 5.09-0.02 12.5-2.3 27.51-9.66 35.77-19.61z" fill="#3E4216" /><path d="M701.52 406.25c-2.91-5.85-13.02-4.23-18.08-3.73-7.09 0.7-13.89 2.45-20.44 5.01 1.58-4.16 3.19-8.31 4.76-12.47 0.82-2.15 1.68-5.18 2.69-8.4 0.55-0.62 0.87-1.46 0.75-2.31 0.81-2.45 1.72-4.92 2.76-7.15 3.18 4.94 7.76 8.46 13.68 9.63 3.71 0.73 9.97 0.98 12.04-3 2.36-4.55-2.48-9.83-5.29-12.95-3.82-4.23-8.36-7.12-13.7-7.85 4.37-8.94 6.43-18.72 5.52-28.78-0.64-7.06-1.45-17.7-10.7-16.45-7.33 0.99-12.12 8.36-13.11 15.16-1.76 12.05 5.73 25.57 9.85 36.63-1.52 2.34-2.53 5.07-3.54 7.79-1.49-6.66-3.35-16.02-9.46-10.66-2.83 2.49-3.61 8.54-3.55 12.06 0.09 4.98 4.04 8.71 6.88 12.46 0.17 0.23 0.37 0.4 0.57 0.56-0.37 0.97-0.73 1.94-1.1 2.91-13.91-8.25-48.41-10.71-50.7 10.15-0.83 7.57 5.27 12.94 12.25 14.18 11.45 2.03 23.58-7.34 33.86-12-0.41 1.15-0.83 2.3-1.22 3.45-0.58 0.28-1.16 0.55-1.74 0.84-2.11 1.08-1.55 3.56-0.01 4.59-2.32 7.55-4.22 15.13-5.95 22.81-3.35-4.61-8.4-8.91-13.33-10.9-3.95-1.59-12.09-3.11-15.66 0.19-3.66 3.38-1.19 8.46 2.09 10.89 6.86 5.07 15.51 8.61 22.99 12.7 0.36 0.2 0.71 0.3 1.06 0.34-0.32 1.53-0.64 3.07-0.96 4.61-1.5 7.27-2.51 14.6-3.26 21.96-4.04-5.95-8.11-12.65-13.53-16.97-4.06-3.24-11.56-5.16-14.9 0.27-4.13 6.72 3.8 12.93 8.33 16.54 5.49 4.37 12.06 9.88 19.15 11.31-0.38 5.31-0.67 10.62-0.95 15.94-9.13-1.05-18.74-1.87-27.43 1.82-3.95 1.67-12.26 6.64-9.27 12.26 2.61 4.92 12.81 1.59 16.82 0.7 4.31-0.96 7.84-2.51 11.68-4.63 2.53-1.39 5.16-1.69 7.79-2.15-0.98 18.57-2.28 37.09-7.12 55.15-0.92 3.41 4.38 4.87 5.29 1.46 5.12-19.07 7.82-74.44 8.29-80.56h0.01c0.48 10.49 4.1 20.51 8.26 30.18 3.26 7.56 8.95 16.46 18.43 15.95 8.14-0.44 9.93-7.11 8.21-13.85-1.15-4.5-2.92-9.21-5.19-13.28-1.58-2.82-4.99-5.38-7.67-7.99 9.37 1.98 18.35 4.98 27.09 9.17 2.65 1.27 5.77-2.07 3.33-4.31-4.31-3.94-9.12-6.82-14.57-8.93-1.89-0.73-20.76-5.36-20.77-6-0.04-2.31 30.94 4.31 32.42-6.88 1.59-12-11.96-14.48-20.49-12.44-8.55 2.05-21.72 3.59-28.38 10.62 0.51-5.05 1.14-10.08 2-15.1 2.04-11.89 4.06-24.24 7.1-36.13 2.84 11.9 10.38 37.1 22.4 26.05 4.66-4.28 2.07-11.86 0.13-16.82-1.58-4.04-3.7-7.8-6.34-11.24-0.8-1.04-8.46-8.18-8.43-8.39 0.99-6.39 46.14 1.62 38.36-14.02z" fill="#3E4216" /><path d="M696.73 557.51c-75.75-0.63-151.49-0.97-227.24-1.04-38.41-0.03-76.82 0.01-115.23 0.12-17.43 0.05-34.95 0.66-52.37 0.23-4.56-0.11-7.63-1.19-11.92-2.18-1.75-0.4-3.09-0.55-4.87 0.01-4.44 1.4-7.35 6.54-8.74 10.63-4.63 13.59-0.36 32.38 2.18 46.15 3.11 16.86 8.31 33.31 15.4 48.92 5.42 11.93 11.79 29.18 26.28 32.16 7.82 1.61 16.49 0.66 24.42 0.66h32.77c80.72 0 161.44 0 242.16-0.01 16.02 0 37.45 3.29 51.32-6.87 13.03-9.54 16.71-29.91 21.79-44.17 7.55-21.18 16.69-42.39 22.76-64.04 4.08-14.53-5.58-20.25-18.71-20.57z" fill="#83AEA6" /><path d="M700.39 621.02c-0.02 0.06-0.04 0.09-0.05 0.13-0.02 0.07-0.04 0.13-0.07 0.18-0.13 0.39-0.27 0.76-0.42 1.13-0.02 0.09-0.06 0.17-0.09 0.26-2.29-0.07-4.6-0.13-6.89-0.19-0.31 0-0.64-0.02-0.95-0.02-16.16-0.3-32.33-0.43-48.49-0.3h-8.3c-2 0-4 0.02-5.99 0.02-35.5 0.02-71 0.06-106.48 0.09-57.27 0.06-114.54 0.17-171.81 0.17-23.11 0-46.24-0.02-69.37-0.07-0.09-0.35-0.18-0.72-0.26-1.07-0.02-0.06-0.04-0.11-0.04-0.15-0.06-0.2-0.11-0.41-0.15-0.61-0.02-0.02-0.02-0.06-0.02-0.07-0.09-0.33-0.16-0.67-0.24-1-0.11-0.44-0.22-0.89-0.31-1.33a0.519 0.519 0 0 1-0.05-0.24c-0.02-0.02-0.02-0.06-0.02-0.07v-0.02c-0.02-0.04-0.02-0.06-0.02-0.09-0.02-0.06-0.04-0.09-0.04-0.15-0.06-0.2-0.11-0.39-0.15-0.59-0.06-0.26-0.11-0.52-0.16-0.78-0.16-0.7-0.31-1.39-0.46-2.07-0.07-0.35-0.15-0.7-0.22-1.06-0.06-0.31-0.13-0.63-0.18-0.94-0.09-0.44-0.18-0.89-0.26-1.33-0.13-0.65-0.26-1.3-0.37-1.94-0.15-0.76-0.28-1.54-0.42-2.31-0.13-0.68-0.26-1.39-0.4-2.09 0-0.07-0.02-0.15-0.04-0.24 10.67 0.3 21.33 0.5 32.02 0.59h0.59c2.55 0.04 5.09 0.04 7.64 0.06 22.67-0.04 45.36-0.06 68.03-0.09 39.68-0.04 79.34-0.07 119.01-0.11 39.68-0.04 79.35 0.15 119.01-0.11 9.77-0.18 19.55-0.3 29.32-0.3 0.97-0.02 1.92-0.02 2.88 0.02 6.19 0 12.35 0.06 18.55 0.15 10.5 0.17 20.97 0.56 31.43 1.17-0.02 0.06-0.04 0.11-0.05 0.17l-0.82 2.24c-0.51 1.39-1.03 2.78-1.56 4.16-0.02 0.07-0.05 0.15-0.07 0.22-0.13 0.31-0.24 0.63-0.35 0.93-0.2 0.54-0.4 1.07-0.6 1.61 0 0.02-0.02 0.04-0.02 0.06z" fill="#C4D7D4" opacity=".109" /><path d="M702.65 615.04c-0.04 0.07-0.06 0.15-0.09 0.24-0.15 0.39-0.29 0.78-0.44 1.18-0.13 0.33-0.27 0.68-0.4 1.04 0 0.04-0.02 0.07-0.04 0.11-0.04 0.11-0.07 0.2-0.13 0.31-0.02 0.07-0.04 0.13-0.07 0.2 0 0.04-0.02 0.07-0.04 0.11s-0.02 0.07-0.05 0.11c0 0.06-0.02 0.09-0.06 0.15-0.27 0.76-0.57 1.52-0.84 2.28-0.02 0.07-0.06 0.13-0.07 0.19 0 0.02 0 0.04-0.02 0.04z" fill="#C4D7D4" opacity=".109" /></svg>