<?xml version="1.0" standalone="no"?><!DOCTYPE svg PUBLIC "-//W3C//DTD SVG 1.1//EN" "http://www.w3.org/Graphics/SVG/1.1/DTD/svg11.dtd"><svg class="icon" width="200px" height="199.42px" viewBox="0 0 1027 1024" version="1.1" xmlns="http://www.w3.org/2000/svg"><path d="M720.34 403.92c14.19-2.66 20.58-16.13 25.52-28.22 1.34-3.27-3.97-4.69-5.29-1.46-4.23 10.35-9.51 22.11-21.69 24.39-3.46 0.65-2 5.94 1.46 5.29z" fill="#9AB06F" /><path d="M636.76 567.49c-6.68-13.24-27.57-11.93-39.84-12.38-20.47-0.75-41.01-0.26-61.49-0.22-22.92 0.04-45.86 0.05-68.78 0.09-15.9 0.02-36.97-3.51-50 7.88-0.31 0.27-0.53 0.57-0.68 0.88-1.5 1.23-2.34 3.15-2.47 5.25-0.18 2.89 0.93 6.09 3.46 8.27 4.79 4.13 11.98 6.27 17.82 8.47 8.54 3.2 17.32 5.74 26.22 7.77 35.45 8.03 73.36 8.91 109.52 6.68 11.43-0.71 59.44-4.21 67.05-21.04 1.51-3.35 1.44-7.19-0.81-11.65z" fill="#868280" /><path d="M510.46 323.64c0.48 20.11 6.2 39.11 11.48 58.35 5.72 20.83 9.07 41.97 10.56 63.51 2.96 42.9 1.17 86.19 0.83 129.15-0.11 14.13 21.84 14.14 21.95 0 0.34-42.96 2.13-86.25-0.83-129.15-1.42-20.6-4.15-41.22-9.2-61.27-5.06-20.07-12.34-39.69-12.84-60.6-0.33-14.09-22.29-14.14-21.95 0.01z" fill="#85A149" /><path d="M790.3 289.56c-8.22-7.39-21.18-6.11-31.34-6.08-16.41 0.05-32.81 0.1-49.22 0.16-16.41 0.05-32.81 0.1-49.22 0.16-17.64 0.06-34.88 1.42-51.38-5.93-26.01-11.58-51.67-23.77-80.24-27.72-19.69-2.73-41.04 2.62-46.73 24.05-6.9 26.02 10.88 47.93 26.12 66.74 10.07 12.43 17.44 25.28 23.82 39.91 3.09 7.07 6.22 14.05 9.94 20.67-0.74 1.83 0.64 3.48 2.21 3.78 2.69 4.37 5.7 8.56 9.24 12.46 2.38 2.62 6.25-1.27 3.88-3.88-3.48-3.84-6.41-8-9.04-12.34 13.54-23.05 40.1-38.61 63.06-50.79 28.82-15.28 61.34-19.3 93.61-18.4 16.17 0.45 31.88 2.94 47.82 5.44 9.04 1.41 18.99 2.51 27.6-1.32 15.07-6.72 23.06-35.06 9.87-46.91zM495.46 534.31c7.61 14.98 12.62 30.69 15.39 47.25 1.55 9.27 15.66 5.34 14.11-3.89-2.98-17.78-8.71-34.68-16.87-50.74-4.26-8.4-16.89-1.01-12.63 7.38zM486.14 541.97c0.3-0.07 0.61-0.13 0.91-0.2-0.94-0.12-1.88-0.25-2.82-0.37 0.96 0.72 1.42 3.44 1.9 4.63 0.67 1.69 1.35 3.38 2.02 5.07 1.46 3.67 2.92 7.33 4.39 11 2.81 7.05 5.62 14.1 8.44 21.14 1.72 4.32 8.8 2.44 7.06-1.95-3.82-9.59-7.65-19.17-11.47-28.76-1.79-4.48-3.35-9.16-5.4-13.53-1.45-3.09-3.5-4.86-6.97-4.1-4.61 1.03-2.66 8.08 1.94 7.07zM565.59 442.02c0.17 24.19 0.47 48.38 0.49 72.57 0.02 23.31-0.86 46.75-7.49 69.26-1.33 4.53 5.73 6.46 7.06 1.95 6.64-22.55 7.73-46.12 7.75-69.49 0.02-24.76-0.31-49.52-0.49-74.28-0.04-4.71-7.36-4.72-7.32-0.01zM754.86 474.62c-4.01-36.66-26.25-70.47-61.35-83.93-18.39-7.05-38.83-7.29-57.31-0.39-8.9 3.32-17.24 8.23-24.31 14.6-8.36 7.53-13.48 19.1-23.63 24.36-3.34 0.96-6.04 3.47-7.31 6.71-0.59 1.49-1 3.37-0.52 4.95 0.2 0.65 0.49 1.11 0.84 1.45-0.89 16.66 13.45 26.69 26.36 35.12 8.81 5.75 15.85 11.95 20.62 21.48 4.34 8.68 6.65 18.22 9.69 27.39 5.2 15.72 12.52 28.85 27.93 36.32 8.84 4.29 18.17 7.7 27.24 11.46 7.98 3.31 19.14 10.77 28.14 8.49 7.67-1.94 10.27-11.58 13.13-17.81 4.39-9.57 8.6-19.24 12.1-29.18 6.9-19.6 10.66-40.21 8.38-61.02z" fill="#85A149" /><path d="M736.2 357.77c-5.73-2.73-13.11-0.89-19.06 0.08-9.93 1.61-19.67 4.17-29.5 6.24-9.4 1.98-18.95 3.57-28.59 3.25-10.38-0.34-19.7-3.73-29.45-6.9-17.82-5.79-32.26-4.11-48.39 5.55-13.03 7.81-28.5 17.11-31.3 33.3-0.3 1.74 0.89 2.98 2.22 3.33 18 22.42 54.83 18.4 80.33 17.57 18.46-0.6 35.82-3.83 53.74-8.04 9.5-2.23 19.2-4.35 29.01-3.96 9.45 0.38 16.57 5.25 25.49 6.83 30.38 5.39 9.93-50.37-4.5-57.25z" fill="#9DB689" /><path d="M592.71 380.42c-8.64-9.81-23.67-6.85-33.86-1.55-15.08 7.84-28.42 24.89-46.49 24.05 0.49-1.66-0.32-3.62-2.47-3.36-20.2 2.46-23.75-22.82-30.4-36.28-4.92-9.95-13.11-17.03-23.22-21.4-11.15-4.81-23.49-6.32-35.5-7.09-12.55-0.81-26.24-2.01-37.37 4.95-6.12 3.83-10.84 7.17-17.83 9.44-4.88 1.59-9.09 3.63-12.67 7.4-8.44 8.89-10.7 21.77-17.89 31.53-8.4 11.41-19.1 19.37-22.01 34.01-2.72 13.66 0.32 27.45 3.71 40.68 1.96 7.66 4.06 15.29 5.08 23.15 1.01 7.71-0.07 16.02 2.74 23.4 3.86 10.15 13.79 16.07 23.24 20.27 28.59 12.7 60.62 17.31 91.59 19.74 27.73 2.18 55.88-0.31 77.27-19.87 11.31-10.34 20.37-23.17 29.79-35.19 9.05-11.54 18.3-23 26.73-35 9.43-13.43 17.9-27.95 22.06-43.95 2.77-10.59 5.53-25.81-2.5-34.93z" fill="#9AB06F" /><path d="M515.3 401.74c-36.94 2.42-63.27 29.52-87.05 55.07-22.29 23.96-44.01 50.22-48.43 83.73-0.46 3.49 5.03 3.46 5.49 0 4.2-31.88 25.68-57.13 46.82-79.85 22.64-24.33 47.86-51.15 83.17-53.47 3.51-0.22 3.54-5.71 0-5.48z" fill="#9DB689" /><path d="M423.11 468.36c18.08 8.99 29.41 26.9 29.55 47.12 0.02 3.53 5.51 3.54 5.49 0-0.15-22.05-12.49-42.03-32.27-51.86-3.15-1.56-5.94 3.17-2.77 4.74zM447.36 434.02c-9.18 0.09-17.81-3.05-26.89-3.68-8.22-0.57-15.65 1.93-23.06 5.23-14.89 6.63-29.92 14-41.26 25.98-2.43 2.56 1.45 6.45 3.88 3.88 10.33-10.92 23.73-17.54 37.21-23.77 9.69-4.48 18.1-6.89 28.83-5.08 7.18 1.21 13.97 3 21.29 2.93 3.53-0.03 3.54-5.52 0-5.49zM480.96 418.41c28.73 16.06 30.16 51.48 30.3 80.63 0.02 3.53 5.5 3.54 5.49 0-0.14-31.19-2.46-68.29-33.02-85.37-3.08-1.73-5.85 3.01-2.77 4.74zM493.21 406.58c-15.35-14.05-32.56-25.86-51.42-34.7-16.3-7.65-36.98-17.14-55.31-13.77-3.47 0.64-2 5.93 1.46 5.29 17.97-3.31 40.84 7.93 56.48 15.85 16.37 8.29 31.38 18.83 44.91 31.21 2.6 2.39 6.49-1.49 3.88-3.88z" fill="#9DB689" /><path d="M605.64 423.9c23 4.96 45.32 14.85 63.33 30.21 19.05 16.24 25.7 42.26 34.75 64.72 1.3 3.23 6.61 1.82 5.29-1.46-9.39-23.31-16.4-50.23-36.16-67.14-18.69-15.99-41.81-26.46-65.75-31.62-3.44-0.74-4.92 4.55-1.46 5.29z" fill="#9AB06F" /><path d="M629.27 431.08c-1.09 14.28 1.74 27.97 8.21 40.73 1.6 3.15 6.33 0.38 4.74-2.77-6.05-11.93-8.47-24.63-7.46-37.96 0.27-3.52-5.22-3.51-5.49 0zM653.33 441.24c27.27-0.33 63.85-6.24 83.51 17.35 2.26 2.72 6.13-1.18 3.88-3.88-20.8-24.95-58.61-19.31-87.39-18.96-3.53 0.05-3.54 5.53 0 5.49zM684.8 470.19c-8.78 21.62-10.76 44.67-6.08 67.51 0.71 3.46 6 1.99 5.29-1.46-4.48-21.89-2.31-43.91 6.08-64.6 1.33-3.26-3.97-4.69-5.29-1.45zM600.23 416.19c8.04 0.26 11.91-6.7 15.64-12.82 6.25-10.26 12.06-20.76 17.54-31.45 1.61-3.14-3.13-5.92-4.74-2.77-3.57 6.97-7.27 13.87-11.17 20.66-3.27 5.7-9.36 21.15-17.27 20.89-3.53-0.11-3.53 5.38 0 5.49zM637.92 414.83c6.49 3.8 12.53-3.28 16.58-7.6 6.22-6.65 11.35-14.18 15.43-22.31 1.58-3.15-3.15-5.93-4.74-2.77-2.79 5.55-6.01 10.84-9.87 15.72-2.02 2.56-10.75 14.49-14.63 12.22-3.06-1.79-5.82 2.95-2.77 4.74zM685.25 408.66c18.84-1.36 29.79-22.72 31.88-39.35 0.44-3.49-5.05-3.46-5.49 0-1.69 13.4-10.97 32.75-26.4 33.87-3.49 0.24-3.52 5.73 0.01 5.48zM764.96 297.9c-24.58 14.64-54.07 13.14-81.67 12.87-30.06-0.3-60.14-1.41-89.51-8.26 7.96-5.46 16.77-9.42 26.65-10.61 3.46-0.41 3.51-5.91 0-5.49-16.48 1.97-30.07 10.56-41.85 21.47-0.32-0.48-0.83-0.85-1.58-1-25.87-5.05-28.73-28.32-27.58-50.65 0.18-3.53-5.31-3.52-5.49 0-1.27 24.61 3.07 49.67 30.45 55.69-4.37 4.39-8.48 9.04-12.41 13.73-3.4 4.06-6.69 8.28-9.77 12.63-0.09-0.72-0.46-1.43-1.23-1.94-21.73-14.42-30.37-39.34-38.14-63-1.1-3.34-6.4-1.91-5.29 1.46 8.26 25.16 17.63 51 40.66 66.28 0.62 0.41 1.22 0.51 1.77 0.42-10.15 15.17-17.33 32.07-16.48 50.87 0.16 3.52 5.65 3.54 5.49 0-1.08-24.02 11.8-44.8 26.68-62.61 0.31 0.51 0.84 0.9 1.65 1.04 16.7 2.8 33.41 3.87 50.33 3.09 3.52-0.16 3.54-5.65 0-5.49-16.26 0.75-32.36-0.16-48.42-2.82 5.87-6.79 12.26-13.51 19.34-19.18 0.32 0.4 0.79 0.71 1.43 0.86 31.71 7.75 64.27 8.76 96.76 9.03 27.57 0.23 56.48 0.94 80.98-13.65 3.03-1.81 0.28-6.55-2.77-4.74z" fill="#9AB06F" /><path d="M661.07 618.49c-4.54 2.1-9.37 2.43-14.09 3.33 1.37 5.67 2.8 11.31 4.32 16.94 5.41 19.92 13.57 39.2 17.42 59.51 3.22 20.34 3.95 43.52 1.13 63.95-2.52 18.29-22.72 22.35-37.61 27.68-38.22 13.67-79.05 11.29-119.04 11.31-20.54 0.02-41.25 0.15-61.67-2.58-16.32-2.2-33.9-5.87-47.53-15.7-27.86-20.05-28.9-62.09-23.73-92.66 3.35-19.79 9.97-38.84 16.76-57.66 1.52-4.26 3.24-8.62 4.96-13.04-3.68-0.73-7.39-1.35-10.87-3.24-5.56-3.02-9.99-7.7-13.15-13.12-5.38-9.18 8.87-17.45 14.21-8.31 3.68 6.29 9.33 7.99 15.37 9.48 3.71-11.12 6.33-22.5 5.38-33.75-0.04-0.6 0.18-1.17 0.57-1.65-0.18 2.89 0.93 6.09 3.46 8.27 4.79 4.13 11.98 6.27 17.82 8.47 8.54 3.2 17.32 5.74 26.22 7.77 35.45 8.03 73.36 8.91 109.52 6.68 11.43-0.71 59.44-4.21 67.05-21.04 1.87 8.87 3.73 17.78 5.71 26.65 6.84-1.28 13.46-1.59 18.04-8.54 5.82-8.82 20.07-0.57 14.21 8.31-3.65 5.55-8.39 10.14-14.46 12.94z" fill="#3A3837" /><path d="M413.14 575.02c0-0.42-0.02-0.86-0.04-1.28 0.42-0.02 0.84-0.04 1.26-0.02 0.18 0.44 0.42 0.86 0.68 1.26-0.62 0.01-1.26 0.03-1.9 0.04zM427.3 582.95c-4.88 0.15-9.79 0.29-14.67 0.44 0.05-0.46 0.11-0.93 0.16-1.39l11.43-0.33c1.01 0.45 2.03 0.87 3.08 1.28zM671.59 737.86c0-0.46 0.02-0.93 0.02-1.39-5.12-0.04-10.24-0.11-15.37-0.22 5.12-1.17 10.23-2.32 15.33-3.46 0.02-0.48 0.02-0.93 0-1.41-6.95 1.54-13.92 3.13-20.89 4.76-39.88-0.9-79.8-3.26-119.49-7.43 4.24-4.68 8.56-9.35 12.99-13.9 15.13 0.02 30.26 0.09 45.39 0.15 23.73 1.26 47.44 2.36 71.16 3.29 3.44 0.13 6.86 0.26 10.3 0.38-0.04-0.4-0.05-0.8-0.09-1.23-15.49-0.62-30.95-1.41-46.37-2.2-0.51-0.02-1.02-0.05-1.54-0.07 15.92 0.05 31.81 0.13 47.73 0.16-0.02-0.46-0.05-0.91-0.11-1.35-25.15-0.05-50.33-0.2-75.5-0.33-15.68-0.9-31.34-1.85-47-2.85 0.53-0.55 1.08-1.08 1.61-1.61 8.93 0.02 17.87 0.04 26.8 0.07 31.28 0.91 62.55 1.54 93.81 1.94-0.04-0.48-0.07-0.91-0.15-1.37-9.57-0.11-19.14-0.26-28.68-0.42 9.55 0.02 19.1 0.04 28.65 0.07-0.04-0.48-0.09-0.93-0.15-1.39-31.78-0.07-63.57-0.15-95.35-0.22-7.61-0.22-15.24-0.46-22.85-0.71 0.55-0.55 1.08-1.06 1.63-1.55 2.6 0.15 5.2 0.27 7.79 0.4 36.2 1.76 72.46 1.98 108.7 1.45-0.04-0.46-0.09-0.93-0.16-1.39-37.89 0.57-75.79 0.31-113.64-1.68-0.46-0.02-0.9-0.05-1.35-0.07 2.43-2.3 4.92-4.56 7.45-6.73 19.72-1.3 39.44-2.78 59.13-4.46 12.18-1.04 24.37-2.16 36.55-3.38 3.6 2.76 7.19 5.58 10.76 8.42-0.13-0.66-0.26-1.32-0.4-1.98-2.71-2.07-5.41-4.13-8.14-6.2 2.34 0.37 4.68 0.71 7.02 1.1-0.11-0.48-0.22-0.93-0.35-1.41a89.43 89.43 0 0 0-3.22-0.49c1.01-0.09 2.01-0.2 3.02-0.31-0.09-0.44-0.22-0.88-0.31-1.32-2.69 0.27-5.38 0.55-8.07 0.82h-0.02a0.86 0.86 0 0 0-0.24-0.04c-1.88-1.45-3.77-2.89-5.67-4.34a248.41 248.41 0 0 0-4.9-3.64c5.63-0.02 11.27-0.02 16.9 0.04-0.13-0.46-0.26-0.93-0.4-1.39-6.15-0.05-12.29-0.05-18.44-0.02-7.28-5.1-14.95-9.62-23.16-12.77l37.47-0.27c-0.15-0.46-0.29-0.91-0.44-1.37-10.06 0.09-20.12 0.16-30.18 0.24 0.71-0.13 1.41-0.24 2.12-0.35 9.35 0.02 18.7 0.04 28.04 0.05-0.07-0.24-0.15-0.48-0.24-0.71-0.07-0.22-0.15-0.44-0.2-0.66-0.07-0.22-0.15-0.42-0.22-0.64-0.02-0.02-0.02-0.04-0.02-0.07a4.75 4.75 0 0 1-0.18-0.57c-0.09-0.24-0.16-0.48-0.24-0.71-0.15-0.42-0.29-0.86-0.44-1.3-5.2 0.27-10.37 0.7-15.49 1.28-12.53-0.02-25.06-0.02-37.59-0.02 5.45-2.58 10.92-5.12 16.43-7.59 10.83 0.38 21.66 0.73 32.49 1.08 0.84 0.09 1.68 0.16 2.54 0.26-0.02-0.07-0.04-0.13-0.05-0.18-0.15-0.42-0.27-0.84-0.4-1.24-0.02-0.02-0.02-0.04-0.02-0.04a0.48 0.48 0 0 1-0.04-0.15c-0.15-0.42-0.27-0.84-0.4-1.26-1.61-0.2-3.22-0.42-4.81-0.62 1.54 0.02 3.07 0.04 4.63 0.05-0.15-0.46-0.29-0.91-0.44-1.37-5.03-0.05-10.06-0.11-15.07-0.15-0.71-0.07-1.43-0.16-2.14-0.27 5.67-0.04 11.36-0.07 17.05-0.11-0.15-0.46-0.29-0.91-0.42-1.37-7.01 0.05-14.03 0.09-21.06 0.13 6.22-2.69 12.49-5.29 18.81-7.74-0.13-0.44-0.26-0.9-0.37-1.34-7.41 2.87-14.73 5.93-21.99 9.09-0.55 0.02-1.1 0.02-1.65 0.02-30.62-4.21-61.19-8.78-91.76-13.41 38.11 0.07 76.21 0.15 114.32 0.22-0.13-0.46-0.26-0.91-0.37-1.37-41.05-0.09-82.08-0.16-123.12-0.24-17.73-2.71-35.45-5.41-53.2-8.07 14.49-3.53 29.03-6.79 43.63-9.79 34.28 3.59 68.55 7.15 102.81 10.74 9.59 1.01 19.17 2.01 28.76 3-0.13-0.46-0.24-0.93-0.35-1.39-42.26-4.43-84.52-8.84-126.78-13.26 7.46-1.52 14.96-2.96 22.46-4.34 7.21-1.32 14.42-2.58 21.64-3.77 32.38 3.57 64.76 7.45 97.16 10.94 0.68-0.37 1.32-0.77 1.96-1.17-29.11-3.11-58.17-6.57-87.26-9.82-2.29-0.26-4.57-0.51-6.86-0.77 23.36-3.77 46.85-6.88 70.41-9.31-0.11-0.44-0.2-0.88-0.29-1.34-25.17 2.6-50.25 5.96-75.21 10.1-13.13-1.45-26.27-2.84-39.44-4.12-15.75-1.57-31.5-2.96-47.29-4.13-15.42-1.17-30.86-2.1-46.32-2.74-7.32-0.31-14.63-0.57-21.95-0.75-0.11 0.48-0.22 0.93-0.35 1.41 5.07 0.11 10.15 0.26 15.22 0.44 43.74 1.55 87.37 5.56 130.87 10.24 1.43 0.15 2.87 0.31 4.3 0.48-14.6 2.47-29.14 5.2-43.63 8.18-20.07-2.09-40.15-4.19-60.22-6.29l-48.86-5.1c-2.69-0.27-5.36-0.57-8.05-0.84-7.74-0.8-15.48-1.63-23.21-2.43 0.02 0.46 0.09 0.91 0.24 1.39 9.59 1.01 19.15 2.01 28.72 3.02 0.62 0.05 1.24 0.13 1.87 0.18 35.05 3.66 70.1 7.34 105.13 10.99-14.29 2.98-28.5 6.22-42.68 9.71-27.95-4.17-55.92-8.23-83.95-11.89 0.69 0.59 1.43 1.13 2.18 1.65 11.31 1.5 22.59 3.06 33.88 4.65 14.8 2.09 29.58 4.24 44.36 6.46-3.64 0.91-7.28 1.85-10.92 2.8-18-2.62-35.98-5.32-53.95-8.12-0.18 0.44-0.35 0.9-0.51 1.34 16.98 2.62 33.97 5.18 50.97 7.68-4.83 1.26-9.64 2.56-14.43 3.88-13.63-0.02-27.26-0.05-40.87-0.07-0.18 0.46-0.35 0.91-0.51 1.37 12.15 0.02 24.29 0.04 36.44 0.07-2.43 0.68-4.87 1.35-7.28 2.05-6.84 1.96-13.66 3.97-20.47 6.04-3.81-0.15-7.61-0.31-11.42-0.48-0.22 0.64-0.46 1.28-0.66 1.9 2.18 0.09 4.34 0.18 6.51 0.29-2.49 0.77-4.96 1.54-7.43 2.32-0.18 0.53-0.37 1.06-0.53 1.59 4.01-1.26 8.01-2.52 12.04-3.73 33.09 1.48 66.21 2.95 99.3 4.3-18.61 0.11-37.21 0.2-55.81 0.27-18.62 0.09-37.26 0.16-55.89 0.22-0.04 0.07-0.05 0.15-0.07 0.22-0.13 0.38-0.26 0.77-0.38 1.15-0.02 0.04-0.04 0.09-0.05 0.13 53.51-0.09 107.04-0.13 160.53-0.04 22.3 0.88 44.58 1.7 66.86 2.47-5.54 2.52-11.07 5.1-16.57 7.7-71.35-0.04-142.71-0.02-214.05 0.04-0.13 0.38-0.24 0.79-0.35 1.17-0.04 0.07-0.05 0.13-0.07 0.2 0 0.04-0.02 0.05-0.02 0.09-0.11 0.35-0.22 0.7-0.33 1.06-0.02 0.09-0.05 0.2-0.09 0.31 61.67 0.13 123.35 0.26 185.04 0.37-1.48 0.29-2.95 0.6-4.41 0.93-44.27 0.33-88.52 0.66-132.79 1.01l-42.31 0.33c-1.99-0.31-4.01-0.64-6-0.97-0.11 0.33-0.2 0.68-0.29 1.01-0.04 0.11-0.07 0.24-0.09 0.35-0.11 0.35-0.2 0.7-0.29 1.02 2.1-0.02 4.23-0.02 6.33-0.04 0.18 0.02 0.38 0.05 0.59 0.09-2.32-0.02-4.63-0.02-6.93-0.02-0.13 0.46-0.26 0.9-0.37 1.35 5.49 0 10.98 0.02 16.46 0.07 16.01 2.45 32.03 4.63 48.11 6.46 18.55 2.12 37.08 3.57 55.63 4.46-18.11 4.37-36.26 8.69-54.39 13.1a758.11 758.11 0 0 1-35.6-6.66 707.045 707.045 0 0 1-32.67-7.72c-0.11 0.42-0.2 0.84-0.27 1.24 21.6 5.65 43.43 10.23 65.44 13.88-8.65 2.1-17.31 4.23-25.94 6.38-14.18-0.95-28.36-2.01-42.53-3.18-0.04 0.24-0.05 0.49-0.09 0.75-0.02 0.18-0.04 0.35-0.05 0.53-0.07 0.49-0.13 1.01-0.18 1.52 11.07 0.97 22.14 1.9 33.2 2.8-0.75 0.18-1.5 0.37-2.25 0.57-8.36 0.29-16.74 0.57-25.1 0.82-0.09-0.02-0.16-0.04-0.26-0.05-1.96-0.46-3.91-0.91-5.87-1.39-0.05 0.42-0.09 0.84-0.13 1.26 0.48 0.13 0.93 0.24 1.41 0.35-0.48 0.02-0.95 0.02-1.43 0.04-0.05 0.46-0.09 0.93-0.13 1.39 2.23-0.07 4.46-0.15 6.7-0.22 2.4 0.57 4.77 1.12 7.17 1.66-1.41-0.02-2.84-0.02-4.24-0.02-3.24-0.02-6.49-0.02-9.73-0.02-0.04 0.46-0.05 0.91-0.07 1.37 3.77 0 7.52 0 11.29 0.02-2.58 0.68-5.16 1.35-7.74 2.03-1.21-0.29-2.41-0.59-3.62-0.9-0.02 0.05-0.02 0.09 0 0.15-0.04 0.4-0.05 0.82-0.07 1.23-0.02 0.11-0.02 0.24 0 0.35 0.07 0.02 0.15 0.05 0.22 0.09-0.09 0.02-0.16 0.04-0.24 0.05-0.04 0.64-0.05 1.28-0.07 1.92 1.04-0.27 2.07-0.55 3.11-0.82 2.05 0.82 4.08 1.66 6.11 2.51l-9.27 0.33c0 0.46-0.02 0.91 0 1.37 4.12-0.16 8.25-0.29 12.37-0.44 9.09 3.75 18.18 7.46 27.31 11.12-12.81 2.8-25.67 5.29-38.54 7.56h-0.05v0.02c0.05 0.46 0.11 0.9 0.18 1.35v0.04c0.07-0.02 0.13-0.02 0.18-0.04 20.21-0.18 40.45-0.18 60.66-0.02 3.09 1.19 6.18 2.4 9.28 3.57-22.01 0-44 0-65.99 0.02-1.28-0.55-2.56-1.1-3.84-1.66 0.07 0.51 0.16 1.01 0.26 1.5 0.13 0.05 0.26 0.11 0.38 0.16-0.13-0.02-0.24-0.02-0.35 0 0.07 0.46 0.16 0.91 0.26 1.37 1.15-0.02 2.29-0.02 3.44 0 5.98 2.45 12 4.65 17.93 6.66-6.6 0-13.21 0.02-19.83 0.02 0.13 0.46 0.26 0.91 0.4 1.37 7.83-0.02 15.68-0.02 23.53-0.02 1.17 0.37 2.32 0.73 3.48 1.1 10.74 3.38 21.46 5.96 32.16 7.83-18.68 0.07-37.36 0.05-56.03-0.07 0.18 0.44 0.38 0.88 0.59 1.32 21.22 0.15 42.44 0.15 63.66 0.07 16.17 2.32 32.32 3.13 48.44 2.8-3.95 3.95-8.01 7.77-12.22 11.42-12.53-0.05-25.06 0.18-37.59 0.75a667.9 667.9 0 0 0-41.42 3.13c-2.76 0.02-5.52 0.04-8.31 0.05 0.27 0.27 0.55 0.53 0.84 0.79 0.2 0.2 0.4 0.38 0.62 0.57 0.22 0.22 0.46 0.42 0.7 0.62 2.05-0.24 4.1-0.46 6.15-0.68 25.14-0.2 50.27-0.93 75.39-2.16-3.66 3.05-7.43 5.96-11.32 8.69a133.16 133.16 0 0 1-16.56 9.9c-8.21-0.37-16.41-0.84-24.59-1.41 1.37 0.38 2.76 0.73 4.17 1.04 6.31 0.44 12.64 0.79 18.97 1.08-1.23 0.6-2.47 1.17-3.73 1.74 0.88 0.13 1.76 0.26 2.63 0.37 1.37-0.62 2.71-1.28 4.04-1.98 50.03 2.25 100.52 1.17 150.47 0.29 1.79-0.35 3.59-0.7 5.38-1.1-51.61 0.95-103.32 2.27-154.47 0.09 9.81-5.18 18.81-11.63 27.28-18.82 7.65-0.38 15.31-0.8 22.96-1.28 22.32 0.59 44.58 1.96 66.83 3.82 16.96 3.88 34.1 7.08 51.46 9.4 2.27 0.31 4.55 0.6 6.84 0.86 0.75-0.26 1.5-0.53 2.27-0.79-16.89-2.01-33.75-4.94-50.56-8.62 19.39 1.76 38.76 3.84 58.12 6.09 0.95-0.33 1.92-0.66 2.87-1.01-16.85-1.98-33.72-3.84-50.62-5.45-6.66-0.64-13.32-1.24-19.98-1.79-7.68-1.79-15.37-3.73-23.01-5.8 3.64-0.31 7.26-0.64 10.89-0.97 24.5-2.25 48.94-4.98 73.32-8.18 9.53-1.26 19.5-2.49 28.9-5.27 1.98-0.02 3.95-0.02 5.93-0.04 0.05-0.46 0.11-0.91 0.15-1.37-0.59 0-1.19 0.02-1.79 0.02 0.62-0.22 1.24-0.46 1.87-0.7 0.06-0.49 0.11-1.01 0.15-1.5-2.14 0.84-4.34 1.57-6.57 2.23-37.28 0.22-74.57 0.64-111.85 1.02 15.09-2.25 30.17-5.12 45.22-8.31 6.51 0 13.04-0.02 19.56-0.02 18-0.02 36.02-0.04 54.04-0.05 0.02-0.05 0.02-0.09 0.02-0.13 0.02-0.35 0.05-0.71 0.05-1.06 0.02-0.05 0.02-0.13 0.02-0.18-2.03 0-4.06 0.02-6.11 0.02-16.54-0.53-33-1.57-49.14-2.52-0.07 0-0.15 0-0.22-0.02 4.77-1.08 9.55-2.16 14.31-3.26 13.79 0.66 27.57 1.37 41.34 2.12 0.04-0.46 0.05-0.91 0.05-1.37-8.23-0.46-16.46-0.88-24.7-1.28 8.23 0 16.48 0 24.73 0.02 0.02-0.46 0.04-0.91 0.04-1.37-11.05-0.02-22.1-0.04-33.15-0.04 4.08-0.93 8.14-1.88 12.22-2.82 6.87 0.17 13.88 0.28 20.87 0.34z m-32.4-86.66c4.9 0.66 9.79 1.3 14.69 1.94-0.15 0-0.29 0-0.46-0.02-6.4-0.62-12.81-1.28-19.19-1.96 1.65 0.02 3.3 0.04 4.96 0.04z m-7.76 1.1c-2.36-0.09-4.72-0.2-7.08-0.29 0.29-0.13 0.59-0.26 0.86-0.38 2.07 0.23 4.14 0.45 6.22 0.67z m-5.14-2.67c-0.11 0.04-0.2 0.09-0.29 0.13-1.83-0.02-3.64-0.04-5.47-0.04-0.16-0.02-0.35-0.04-0.51-0.05 2.08-0.01 4.17-0.03 6.27-0.04z m-8.15-1.32c-3.31 0.02-6.6 0.04-9.92 0.05-36.15-4.04-72.26-8.62-108.32-13.59 8.98 0.02 17.96 0.04 26.95 0.05 30.42 4.63 60.83 9.23 91.29 13.49z m-147.98-22.06c15.84 2.36 31.68 4.77 47.51 7.19-9.31-0.02-18.62-0.04-27.93-0.05-10.21-1.43-20.42-2.89-30.61-4.37 3.67-0.96 7.35-1.88 11.03-2.77z m-14.53 3.65c7.98 1.17 15.95 2.32 23.95 3.44-12.24-0.02-24.48-0.04-36.7-0.05 4.25-1.15 8.49-2.29 12.75-3.39z m90.81 18.83l-137.26-5.82c9.53-2.87 19.1-5.63 28.68-8.27 17.21 0.04 34.45 0.07 51.68 0.11 35.6 4.98 71.24 9.59 106.95 13.68-16.68 0.1-33.36 0.21-50.05 0.3z m54.06 2.29c4.26 0 8.54 0.02 12.81 0.04 2.3 0.02 4.59 0.02 6.9 0.04 0.77 0.07 1.52 0.16 2.29 0.24-0.42 0.18-0.82 0.37-1.23 0.55l-20.77-0.87zM483.62 775.76c-20.05 1.01-40.12 1.68-60.19 2.01 16.34-1.32 32.73-2.01 49.1-2.21 3.8-0.05 7.59-0.07 11.4-0.07-0.09 0.09-0.2 0.18-0.31 0.27z m45.75-47.25a1263.49 1263.49 0 0 1-70.16-9.42c4.79-1.3 9.57-2.65 14.32-4.06 17.03-0.16 34.04-0.24 51.06-0.24 5.82 0 11.63 0 17.45 0.02-4.27 4.48-8.48 9.07-12.67 13.7z m9.66 11.76h-18.35c0.64-0.7 1.28-1.39 1.9-2.1h0.02c0.04 0 0.05 0 0.09 0.02 5.44 0.73 10.89 1.42 16.34 2.08z m-1.33-1.65c15.92 0.48 31.81 1.04 47.73 1.66h-32.84c-4.96-0.52-9.93-1.07-14.89-1.66z m-15.68-1.93c-18.15-2.36-36.24-5.09-54.26-8.18-8.8-1.52-17.58-3.11-26.36-4.79 4.94-1.21 9.86-2.49 14.76-3.81 23.93 4.01 47.98 7.26 72.1 9.84-2.09 2.31-4.15 4.63-6.24 6.94z m-13.63-34.52c-2.71 0.99-5.43 1.94-8.18 2.89-13.34-0.6-26.65-1.3-39.99-2.05 12.97-0.55 25.94-1.13 38.91-1.79 3.1 0.32 6.17 0.63 9.26 0.95z m-0.49-1.41c1.68-0.07 3.38-0.16 5.07-0.26-0.53 0.2-1.08 0.38-1.61 0.59-1.16-0.1-2.31-0.21-3.46-0.33z m-5.87 6.91c-1.46-0.09-2.93-0.2-4.39-0.29 0.97-0.33 1.94-0.66 2.89-0.99 10.79 0.49 21.57 0.95 32.36 1.35-10.28-0.01-20.58-0.05-30.86-0.07z m45.55 1.48c-0.49 0.49-0.97 0.99-1.46 1.48-7.76-0.49-15.53-1.01-23.29-1.54 8.25 0.03 16.5 0.05 24.75 0.06z m-50.75-2.94c-0.91 0.31-1.83 0.62-2.74 0.91-5.95-0.42-11.87-0.84-17.8-1.28-9.97-0.73-19.92-1.48-29.89-2.25 0.37-0.02 0.71-0.04 1.08-0.04 16.44 1.01 32.89 1.89 49.35 2.66z m-8.53 2.8a719.71 719.71 0 0 1-14.98 4.65c-10.21 0.07-20.4 0.2-30.61 0.37-3.71 0.05-7.41 0.13-11.12 0.2-9.02-1.68-18.02-3.48-27-5.4 27.9 0.05 55.82 0.12 83.71 0.18z m-19.9 6.05c-4.13 1.21-8.31 2.36-12.48 3.48-5.85-0.97-11.69-1.98-17.53-3.06 10.02-0.18 20-0.31 30.01-0.42z m-36.64 0.55c7.01 1.32 14.03 2.56 21.07 3.75-4.88 1.28-9.79 2.52-14.71 3.71-10.98-2.16-21.95-4.43-32.87-6.84 8.84-0.25 17.67-0.45 26.51-0.62z m111.63-2.19c-21.7-0.04-43.41 0-65.13 0.18 4.81-1.45 9.59-2.96 14.36-4.54 17.25 1.19 34.48 2.3 51.73 3.35-0.3 0.33-0.63 0.68-0.96 1.01z m18.86 0.05c-5.58-0.02-11.16-0.04-16.74-0.05 0.29-0.29 0.57-0.59 0.86-0.88l15.88 0.93z m-12.53-6.42c-15.28-0.53-30.55-1.13-45.83-1.83 2.56-0.9 5.12-1.81 7.68-2.76 13.24 1.24 26.51 2.23 39.79 2.98-0.56 0.55-1.09 1.08-1.64 1.61z m3-2.89c-12.73-0.71-25.48-1.63-38.2-2.78 1.01-0.38 2.01-0.75 3-1.13 14.09-0.77 28.17-1.61 42.24-2.54-2.4 2.1-4.74 4.25-7.04 6.45z m8.74-7.92c-13.26 0.88-26.51 1.68-39.79 2.41 3.13-1.21 6.24-2.45 9.35-3.73 10.21-4.17 20.27-8.67 30.28-13.32 6.66 0 13.34-0.05 20.01-0.16-7.01 4.43-13.57 9.4-19.85 14.8z m-0.71-15.9c-0.4 0.02-0.81 0.02-1.21 0.02-14.85 0.09-29.69-0.22-44.47-0.88 5.78-1.45 11.56-2.87 17.36-4.3 11.03 0.88 22.06 1.87 33.07 2.95-1.59 0.75-3.16 1.5-4.75 2.21z m7.46-1.96c5.14 0.51 10.28 1.06 15.42 1.61-0.04 0.02-0.05 0.04-0.07 0.04-6.48 0.13-12.97 0.24-19.45 0.27 1.38-0.62 2.73-1.26 4.1-1.92z m-4.24 17.69c6.35-5.38 13.01-10.35 20.1-14.67 0.24-0.02 0.46-0.02 0.69-0.02 3.22-0.05 6.44-0.13 9.68-0.18 19.52 2.21 39 4.77 58.43 7.65-29.59 2.87-59.23 5.25-88.9 7.22z m91.63-8.14c-6.64-0.99-13.3-1.92-19.94-2.84-10.63-1.46-21.26-2.84-31.9-4.1 13.79-0.29 27.59-0.59 41.38-0.68 3.55 2.46 7.02 5.01 10.46 7.62z m-13.83-9.91c0.46 0.31 0.91 0.6 1.35 0.93-16.46 0.13-32.93 0.53-49.39 0.88-1.96-0.22-3.93-0.46-5.91-0.66 2.54-1.46 5.16-2.84 7.83-4.12 7.7-3.7 15.68-6.38 23.86-8.34 7.81 2.65 15.2 6.57 22.26 11.31z m-19.19-13.63c-0.62 0.13-1.23 0.27-1.85 0.42-0.73 0.02-1.48 0.02-2.21 0.02-0.49-0.15-0.99-0.31-1.48-0.44h5.54z m-23.16 7.44c-4.85 2.1-9.49 4.46-13.96 7.08-4.99-0.57-10.01-1.08-15.02-1.57 7.68-3.62 15.33-7.3 22.99-10.96 7.3-0.05 14.62-0.11 21.92-0.16-5.43 1.53-10.75 3.38-15.93 5.61z m-1.68-7.48c4.43 0 8.87 0.02 13.3 0.02 0.73 0.15 1.46 0.31 2.2 0.51-5.63 0.04-11.25 0.07-16.89 0.13 0.45-0.22 0.93-0.46 1.39-0.66z m-18.17-0.03c4.99 0 9.99 0.02 14.98 0.02-0.49 0.22-0.97 0.46-1.45 0.7-6.18 0.05-12.35 0.09-18.53 0.15 1.67-0.34 3.34-0.64 5-0.87z m-11.82 2.26c7.48-0.05 14.96-0.11 22.45-0.16-7.46 3.55-14.93 7.13-22.41 10.65-10.45-1.06-20.91-2.01-31.39-2.85 6.07-1.52 12.17-3 18.24-4.5 4.33-1.09 8.71-2.17 13.11-3.14z m-167.27 1.28c35-0.27 69.99-0.53 104.99-0.8 18.53-0.15 37.06-0.27 55.59-0.42-5.84 1.41-11.62 2.95-17.32 4.35-3.88 0.95-7.76 1.92-11.65 2.85a1804.88 1804.88 0 0 0-80.2-4.66c-16.67-0.6-33.31-0.95-49.98-1.1-0.48-0.05-0.96-0.12-1.43-0.22z m11.47 1.71c3.18 0.04 6.35 0.09 9.53 0.15 35.55 0.7 71.09 2.4 106.56 5.14-6.06 1.46-12.11 2.93-18.18 4.39-32.77-1.65-65.39-5.02-97.91-9.68z m54.8 21.88c14.58-3.6 29.16-7.23 43.74-10.83 15.82 0.7 31.65 0.99 47.51 1.01-12.11 5.56-24.33 10.9-36.75 15.73-1.34 0.51-2.69 1.04-4.02 1.54-6.09 0.35-12.18 0.66-18.29 0.97-14.49-1.54-28.94-3.4-43.34-5.65 3.71-0.93 7.44-1.86 11.15-2.77z m-14.34 3.54a895.08 895.08 0 0 0 38.22 5.27c-14.67 0.71-29.34 1.35-44.01 1.94h-0.02c-6.22-0.37-12.42-0.77-18.62-1.19 8.13-2.01 16.29-4.02 24.43-6.02z m-39.84 9.86c5.14-0.18 10.28-0.37 15.42-0.57 14.65 1.15 29.32 2.27 43.98 3.31-23.23-0.05-46.47-0.09-69.7-0.15 3.42-0.87 6.86-1.73 10.3-2.59z m-22.54 0.75c4.54-0.15 9.06-0.29 13.59-0.46-2.43 0.6-4.87 1.23-7.3 1.87-2.1-0.44-4.19-0.91-6.29-1.41z m6.88 3.21h1.57c8.91 1.98 17.85 3.82 26.8 5.54-8.51 0.18-17.01 0.4-25.52 0.66-1.76-0.38-3.49-0.79-5.25-1.19-3-0.7-6-1.39-9-2.1 3.79-0.98 7.59-1.94 11.4-2.91z m-11.47 4.28c1.17 0.29 2.34 0.57 3.51 0.84 1.79 0.42 3.59 0.84 5.4 1.23-1.19 0.04-2.38 0.07-3.57 0.13-1.77-0.74-3.57-1.47-5.34-2.2z m8.47 3.45c1.94-0.05 3.86-0.11 5.8-0.16 11.71 2.67 23.47 5.14 35.27 7.45-4.9 1.19-9.81 2.31-14.73 3.37-8.82-3.52-17.6-7.09-26.34-10.66z m-6.7 18.74c10.92-2.01 21.82-4.19 32.65-6.55 5.51 2.2 11.03 4.39 16.57 6.57-16.4-0.13-32.81-0.13-49.22-0.02z m35.38-7.16c5.23-1.17 10.46-2.38 15.68-3.64 19.01 3.71 38.09 6.99 57.22 9.86 4.92 0.73 9.84 1.46 14.78 2.14-23.09-0.59-46.19-0.97-69.3-1.15-6.14-2.38-12.27-4.77-18.38-7.21z m21.94 8.6c23.29 0.2 46.58 0.62 69.85 1.23 2.12 0.05 4.23 0.11 6.35 0.18-0.64 0.71-1.28 1.43-1.92 2.14-21.68-0.02-43.34-0.02-65.02-0.02-3.1-1.17-6.19-2.34-9.26-3.53z m64.48 24.83c-2.85 0.16-5.69 0.27-8.54 0.33 0.75-0.75 1.5-1.5 2.2-2.27h0.4c1.97 0.66 3.95 1.31 5.94 1.94z m-0.87-1.98c8.96-0.07 17.93-0.16 26.91-0.24-7.19 0.84-14.38 1.52-21.59 1.98-1.78-0.59-3.55-1.15-5.32-1.74z m-5.49-1.83c-7.87-2.62-15.71-5.34-23.53-8.14 10.41-0.02 20.82-0.02 31.23-0.04-2.53 2.77-5.11 5.49-7.7 8.18z m-0.33-9.53c-9 0-17.98 0.02-26.98 0.02-5.98-2.16-11.96-4.35-17.93-6.6 20.05 0 40.12 0 60.17 0.02-1.98 2.2-3.97 4.39-5.96 6.57h-9.3z m-97.29 0.09c-6.2-1.99-12.37-4.21-18.42-6.66 22.08-0.02 44.14-0.02 66.22-0.02 5.87 2.25 11.76 4.45 17.67 6.62l-65.47 0.06z m42.72 10.28c-2.18-0.35-4.37-0.73-6.55-1.13a296.517 296.517 0 0 1-31.85-7.79c21.62-0.02 43.26-0.04 64.91-0.05 8.27 2.98 16.56 5.89 24.88 8.69-17.13 0.14-34.25 0.25-51.39 0.28z m9.22 1.32c14.62-0.05 29.21-0.15 43.83-0.27-0.75 0.79-1.5 1.54-2.27 2.31-13.81 0.27-27.66-0.32-41.56-2.04z m28.88 15.75c0.06-0.05 0.11-0.09 0.16-0.15 0.84-0.02 1.7 0 2.54 0-0.9 0.06-1.8 0.11-2.7 0.15z m21.17-1.19c-6.48-0.18-12.97-0.29-19.45-0.33 4.15-3.68 8.18-7.52 12.11-11.47 3.77-0.09 7.52-0.24 11.29-0.48 10.7 3.44 21.48 6.7 32.31 9.7-4.45 0.35-8.89 0.68-13.34 1.01-7.63 0.57-15.27 1.1-22.92 1.57z m58.21 3.15c-14.82-1.17-29.65-2.09-44.51-2.69 8.76-0.6 17.51-1.28 26.25-2.03 6.08 1.65 12.15 3.22 18.26 4.72z m93.59-19.45c-3.86 0.91-7.74 1.61-11.51 2.21-32.91 5.25-66.33 8.51-99.63 11.16-10.79-2.96-21.57-6.2-32.29-9.62 8.82-0.6 17.62-1.5 26.42-2.65 39.01-0.38 78.01-0.84 117.01-1.1z m-112.54-0.29c-3.73 0.04-7.46 0.07-11.2 0.11-10.3 0.11-20.6 0.2-30.9 0.27-0.05 0-0.09-0.02-0.15-0.04 2.78-2.85 5.49-5.74 8.18-8.65 26.75-0.02 53.49-0.04 80.25-0.07-15.34 3.28-30.74 6.18-46.18 8.38z m-32.8-9.68c2.01-2.18 4.01-4.37 5.98-6.55 10.45 0 20.87 0 31.32 0.02 18.11 2.05 36.31 3.77 54.51 5.03-2.14 0.48-4.28 0.95-6.44 1.43-28.44 0.02-56.91 0.05-85.37 0.07z m115.47-0.09c-8.34 0-16.68 0-25.03 0.02 1.76-0.38 3.53-0.77 5.29-1.15 6.58 0.44 13.15 0.82 19.74 1.13z m-17.36-2.83c-15.17-0.93-30.29-2.14-45.4-3.6 17.25 0 34.52 0.02 51.77 0.04 2.52 0.11 5.05 0.24 7.59 0.35-4.65 1.06-9.32 2.14-13.96 3.21z m21.18-4.93c-4.92-0.02-9.86-0.02-14.78-0.02-31.39-1.45-62.78-2.63-94.19-3.49 2.1-2.29 4.17-4.59 6.27-6.9 1.06 0.13 2.14 0.24 3.2 0.35 37.19 3.84 74.57 6.16 111.96 7.12-4.15 0.99-8.31 1.97-12.46 2.94z m31.87-146.09c1.9-0.16 3.81-0.31 5.71-0.48-1.87-0.49-3.9-0.4-5.71 0.48z m-273.75-1.06c-3.75-0.04-7.5-0.02-11.25 0.02-0.49 0.42-0.93 0.9-1.32 1.41 4.56-0.05 9.11-0.07 13.67-0.02-0.33-0.53-0.7-1.01-1.1-1.41z" fill="#D5D1C3" /></svg>