<?xml version="1.0" standalone="no"?><!DOCTYPE svg PUBLIC "-//W3C//DTD SVG 1.1//EN" "http://www.w3.org/Graphics/SVG/1.1/DTD/svg11.dtd"><svg class="icon" width="200px" height="200.00px" viewBox="0 0 1024 1024" version="1.1" xmlns="http://www.w3.org/2000/svg"><path d="M246.412716 727.325603a269.718584 34.657474 0 1 0 539.437167 0 269.718584 34.657474 0 1 0-539.437167 0Z" fill="#FFC5B9" /><path d="M274.010334 191.257913s-28.881228-29.04168-32.89251 8.183015c0 0-2.56722 16.045127 44.124099 28.239423" fill="#FCB7AC" /><path d="M284.600118 230.568474c-48.135381-12.354748-46.691319-29.683485-46.370417-32.090254 1.28361-11.39204 5.134441-18.451896 11.39204-20.698214 11.231589-4.011282 25.030398 9.466625 26.47446 10.910687l-4.171733 4.171733c-3.369477-3.529928-13.798809-11.873394-20.377312-9.627077s-6.738953 9.787527-7.380758 16.045127c0 0 0 14.119712 41.877781 25.030398z"  /><path d="M273.368529 190.93701s8.664369-40.112817 32.090254-10.750235c0 0 10.910686 12.354748-21.981824 48.135381" fill="#FCB7AC" /><path d="M285.562825 229.605766l-4.171733-4.011282c30.004387-32.090254 21.821373-43.482294 21.821373-43.482293-4.011282-5.134441-9.787527-10.750235-14.921968-9.627077s-11.071138 14.601065-12.033845 19.093701l-5.776246-1.28361c0-2.085866 4.813538-20.698214 16.045127-23.425885 6.418051-1.604513 13.477907 2.406769 20.698214 11.552491 1.764964 1.28361 12.033845 15.082419-21.660922 51.183955z"  /><path d="M573.251951 107.50235s-8.343466-38.026951-30.485741-10.10843c0 0-10.268881 11.552491 20.858665 44.926356" fill="#FCB7AC" /><path d="M561.378557 144.406142c-32.090254-34.336572-21.981824-48.135381-20.858665-49.098088 6.899405-8.503917 13.638358-12.194296 19.895958-10.750235 11.071138 2.56722 16.045127 20.377311 16.045126 22.302726l-5.776245 1.28361c-0.962708-4.492636-4.973989-16.045127-11.39204-17.970542s-10.268881 4.332184-13.959261 8.985271c0 0-7.54121 10.910686 20.698214 41.235977z"  /><path d="M572.770597 106.700094s28.239423-27.276716 31.127547 8.022563c0 0 2.56722 16.045127-41.71733 26.795362" fill="#FCB7AC" /><path d="M562.822619 144.245691l-1.444062-5.455343c39.631463-10.429332 39.631463-23.425885 39.631464-23.586337 0-6.097148-2.246318-13.638358-6.899405-16.045127s-16.045127 5.776246-19.254152 8.985271l-4.171733-4.011281c1.604513-1.604513 14.601065-14.280163 25.3513-10.429333 6.097148 2.085866 9.627076 8.82482 10.910687 19.895958 0.160451 2.56722 1.444061 18.93325-44.124099 30.646192z"  /><path d="M722.952985 23.265434s-8.343466-38.026951-30.485741-10.268881c0 0-10.268881 11.712943 20.858665 45.086806" fill="#FCB7AC" /><path d="M711.079591 60.169226c-32.090254-34.336572-21.981824-48.135381-20.858665-49.098088 6.899405-8.503917 13.638358-12.194296 19.735506-10.750235 11.231589 2.56722 16.045127 20.377311 16.045127 22.302726l-5.615794 1.28361c-0.962708-4.492636-4.973989-16.045127-11.39204-17.970542s-10.268881 4.332184-13.959261 8.985271c0 0-7.54121 10.910686 20.698214 41.235976z"  /><path d="M722.471631 22.623629s27.437167-27.437167 31.127547 7.862112c0 0 2.56722 16.045127-41.71733 26.634911" fill="#FCB7AC" /><path d="M713.325909 60.008775l-1.444061-5.615795c40.273269-10.429332 39.631463-23.425885 39.631463-23.586336 0-5.936697-2.246318-13.477907-6.899404-15.08242s-16.045127 5.776246-19.254153 8.985271l-4.171733-4.171733c1.444061-1.444061 14.601065-14.119712 25.351301-10.268881 6.097148 2.085866 9.627076 8.82482 10.910686 19.895958-0.641805 1.604513 0.641805 18.130993-44.124099 29.843936z"  /><path d="M405.740826 40.43372s-36.261987-41.877781-45.407709 8.022563c0 0-4.973989 21.660921 56.9602 42.038233" fill="#FCB7AC" /><path d="M416.651512 93.382639c-62.575995-20.698214-59.36697-43.161391-58.725164-45.568161 2.56722-15.082419 8.183015-23.907239 16.045127-26.153557 15.242871-4.332184 33.052961 16.045127 33.694766 16.847384l-4.011281 4.011281c-4.492636-5.134441-18.130993-17.810091-27.75807-15.082419-5.936697 1.604513-10.10843 8.985271-12.354748 21.660921 0 0-2.727672 19.735506 54.874334 38.829208z"  /><path d="M404.93857 39.952366s16.045127-53.269821 44.28455-11.552491c0 0 13.477907 17.64964-34.015669 61.93419" fill="#FCB7AC" /><path d="M417.132866 92.580382l-4.011282-4.332184c44.445002-41.396427 33.855218-57.922908 33.694767-58.083359-7.380758-10.750235-14.119712-16.045127-20.21686-14.761517-9.947979 1.604513-17.007835 18.772798-18.93325 25.3513l-5.615794-1.604512c0-1.123159 8.022563-26.955813 23.586336-29.523034 8.503917-1.28361 17.328737 4.492636 25.993106 17.168286 1.444061 1.764964 13.638358 20.858665-34.497023 65.78502z"  /><path d="M353.754615 141.197117h311.435913a34.015669 34.015669 0 0 1 33.855218 37.866499l-77.17706 358.287685a34.015669 34.015669 0 0 1-34.015669 30.325289l-178.26136-0.962707a34.17612 34.17612 0 0 1-33.855218-32.090254L319.899397 177.940458A34.015669 34.015669 0 0 1 353.754615 141.197117z" fill="#FFC5B9" /><path d="M588.013468 570.564713l-178.26136-0.962707a36.743341 36.743341 0 0 1-36.743341-34.015669L317.011274 178.421811a36.422438 36.422438 0 0 1 9.627076-28.239423 36.903792 36.903792 0 0 1 27.116265-11.39204h311.435913a36.903792 36.903792 0 0 1 36.903792 41.075525l-77.337511 358.127233a36.903792 36.903792 0 0 1-36.743341 32.571607zM353.754615 144.08524a30.485741 30.485741 0 0 0-22.78408 10.10843 29.843936 29.843936 0 0 0-8.183015 23.586336l55.837042 357.164525a31.127546 31.127546 0 0 0 30.967095 28.881229h178.26136a30.806644 30.806644 0 0 0 31.127546-27.597618l78.300219-357.806331a30.806644 30.806644 0 0 0-8.503917-23.586336 32.090254 32.090254 0 0 0-23.586337-10.750235z"  /><path d="M393.706981 595.113757l4.171733 86.964588a32.090254 32.090254 0 0 0 32.090254 29.683485l139.592604-1.123159a31.127546 31.127546 0 0 0 30.806644-28.720777l6.899404-85.360075a31.127546 31.127546 0 0 0-30.967095-33.694767l-151.7869-0.481353a31.127546 31.127546 0 0 0-30.806644 32.732058z" fill="#FFC5B9" /><path d="M429.166711 714.649953a34.015669 34.015669 0 0 1-34.17612-32.090254l-4.171733-86.804136a34.336572 34.336572 0 0 1 33.694767-36.422439h150.50329a34.015669 34.015669 0 0 1 33.855218 36.903792l-6.899405 85.199624a33.855218 33.855218 0 0 1-33.694766 32.090254l-139.592604 1.123159z m-4.653086-149.380132a28.239423 28.239423 0 0 0-28.399875 29.683485l4.171733 86.964588a28.399875 28.399875 0 0 0 28.399875 26.955813l139.592604-1.123159a28.078972 28.078972 0 0 0 27.918521-25.993105l6.899404-85.360075a27.918521 27.918521 0 0 0-7.380758-21.50047 28.399875 28.399875 0 0 0-20.698214-9.145723H424.353173z" fill="#020202" /><path d="M397.718263 660.417424a231.210279 231.210279 0 0 0 201.366342-1.444061" fill="#FFC5B9" /><path d="M496.395793 685.287371a223.669069 223.669069 0 0 1-100.121592-22.302727l2.888123-4.973989a230.728925 230.728925 0 0 0 198.638671-1.764964l2.567221 5.294892a241.639611 241.639611 0 0 1-103.972423 23.746788z" fill="#020202" /><path d="M452.432145 677.906612a83.274209 83.274209 0 0 1 100.442495-3.209025" fill="#FFFFFF" /><path d="M454.357561 680.15293l-3.850831-4.332184a86.643685 86.643685 0 0 1 104.132874-3.529928l-3.209025 4.973989a80.225635 80.225635 0 0 0-97.073018 2.888123z" fill="#020202" /><path d="M425.797235 990.144782a65.945472 65.945472 0 0 0-12.354748-8.183015l1.925415-2.246317a58.564713 58.564713 0 0 1 12.354748 7.701661z m3.690379 9.466625c-3.209025 7.54121-7.54121 16.045127-10.910686 23.104983l-3.048575-1.444062a218.374177 218.374177 0 0 0 11.392041-22.944531z m0-27.918521a56.478847 56.478847 0 0 0-12.033845-8.503917l2.085866-2.406769a60.971482 60.971482 0 0 1 11.873394 8.183015z m43.482294 48.135381c2.085866 0 2.56722-1.604513 2.727671-11.071138a8.022563 8.022563 0 0 0 3.048575 1.604513c0 10.10843-1.123159 12.515199-5.455344 12.515199h-8.183014c-4.171733 0-5.455343-0.962708-5.455343-5.294892v-24.869946h-10.910687c-0.962708 16.045127-3.85083 25.832654-17.489188 31.127546a6.418051 6.418051 0 0 0-2.085867-2.567221c12.996553-4.813538 16.045127-13.638358 16.045127-28.560325h-13.317455v-3.529928h21.50047v-14.119712h-12.836102a49.418991 49.418991 0 0 1-5.455343 10.910686l-3.048574-1.764964a61.452836 61.452836 0 0 0 9.145723-23.265434h3.369476c-0.802256 3.529928-1.764964 7.059856-2.727671 10.268881h10.589783v-12.033845h4.171733v12.033845h18.451896v3.209026h-18.451896v14.761517h21.019117v3.369476h-14.921968v24.709496c0 1.764964 0 2.246318 2.56722 2.246317zM517.254458 968.32341c-0.962708 3.369477-2.085866 7.220307-3.209025 10.268881h29.202131v45.247258h-3.529928v-4.011282h-48.135381v4.011282h-2.888123v-45.247258h21.981824c0.962708-3.048574 1.925415-6.899405 2.727672-10.268881H485.324656v-3.369477h61.452836v3.369477z m-25.190849 48.13538h11.712943v-34.657474h-11.712943z m32.090254-34.978376h-17.168286v9.466625h17.328737z m0 12.515199h-17.168286v9.466625h17.328737z m-17.328737 22.463177h17.328737v-9.627076h-17.168286z m32.090254-34.978376h-12.194297v34.978376h12.194297zM574.37511 1014.052021a38.187402 38.187402 0 0 0-4.332184-4.973989 37.224694 37.224694 0 0 1-13.638358 14.440614 10.268881 10.268881 0 0 0-2.085867-2.727671 32.090254 32.090254 0 0 0 13.157004-14.119712 105.576935 105.576935 0 0 0-10.910686-8.503917c1.604513-5.134441 3.529928-12.67565 5.134441-20.377312h-6.738954v-3.209025h7.380759c0.962708-5.134441 1.764964-10.429332 2.406769-14.921968h3.209025c0 4.332184-1.444061 9.466625-2.406769 14.601066h12.836102a97.554372 97.554372 0 0 1-6.899405 31.287997 38.989658 38.989658 0 0 1 5.134441 5.294892z m-9.466625-36.261987c-1.444061 7.059856-3.048574 13.95926-4.653087 19.414604a71.240364 71.240364 0 0 1 8.664369 6.418051 80.225635 80.225635 0 0 0 5.936697-25.832655z m51.023504 8.022564a8.664369 8.664369 0 0 1 0 1.764964c-1.28361 22.944531-2.246318 31.127546-4.813538 33.694766a5.455343 5.455343 0 0 1-4.653087 1.925416 90.815418 90.815418 0 0 1-10.750235 0 6.418051 6.418051 0 0 0-1.123159-3.209026h10.750235a3.690379 3.690379 0 0 0 3.048574-0.962707c2.085866-1.925415 3.209025-9.627076 4.332184-30.164839h-12.836101c1.444061-5.294892 3.048574-13.638358 4.171733-20.698214h-12.67565c0 19.414604-1.604513 43.482294-15.242871 55.676591a8.82482 8.82482 0 0 0-2.727672-2.085867c13.317455-11.39204 14.440614-35.138828 14.761517-53.590724h-9.145722v-3.048574h28.720777c-0.962708 6.257599-2.56722 14.440614-4.011282 20.537763z"  /><path d="M592.666555 556.765904a11.712943 11.712943 0 0 1-10.268882-12.996553l78.30022-375.616421a11.712943 11.712943 0 0 1 12.996553-10.268881 11.552491 11.552491 0 0 1 10.268881 12.836101L605.663107 546.336572a11.873394 11.873394 0 0 1-12.996552 10.429332zM400.285483 557.247258a11.873394 11.873394 0 0 0 10.750235-12.67565L351.347846 166.708869a11.39204 11.39204 0 0 0-12.515199-10.589784 11.712943 11.712943 0 0 0-10.750235 12.67565l59.527421 377.702288a11.873394 11.873394 0 0 0 12.67565 10.750235z" fill="#FFFFFF" /></svg>