<?xml version="1.0" standalone="no"?><!DOCTYPE svg PUBLIC "-//W3C//DTD SVG 1.1//EN" "http://www.w3.org/Graphics/SVG/1.1/DTD/svg11.dtd"><svg class="icon" width="200px" height="200.00px" viewBox="0 0 1024 1024" version="1.1" xmlns="http://www.w3.org/2000/svg"><path d="M593.48 290.44c-13.23-7.56-32.59 7.19-42.4 14.44-7.23 5.34-14.36 10.79-19.89 17.96-4.15 5.37-7.4 11.3-11.11 16.93-0.17 0.13-0.34 0.25-0.51 0.38-0.68 0.54-0.96 1.17-0.95 1.8-1.49 2.14-3.08 4.22-4.85 6.18-2.36 2.62 1.51 6.51 3.88 3.88 2.44-2.7 4.59-5.6 6.62-8.58 16-12.22 35.58-17.72 53.27-26.9 6.41-3.34 31.09-17.43 15.94-26.09z" fill="#ABCB66" /><path d="M413.85 313.78c3.53 0 3.54-5.49 0-5.49-3.53 0.01-3.54 5.49 0 5.49zM464.44 291.83c3.53 0 3.54-5.49 0-5.49-3.53 0-3.54 5.49 0 5.49zM461.1 310.44c3.53 0 3.54-5.49 0-5.49-3.53 0.01-3.54 5.49 0 5.49zM472.55 305.19c3.53 0 3.54-5.49 0-5.49-3.53 0.01-3.54 5.49 0 5.49zM475.89 351.49c3.53 0 3.54-5.49 0-5.49-3.53 0-3.54 5.49 0 5.49zM484 369.14c3.53 0 3.54-5.49 0-5.49-3.53 0-3.53 5.49 0 5.49zM476.85 328.64c3.53 0 3.54-5.49 0-5.49s-3.54 5.49 0 5.49zM456.8 374.39c3.53 0 3.54-5.49 0-5.49-3.53 0-3.53 5.49 0 5.49zM646.26 325.78c3.53 0 3.54-5.49 0-5.49-3.53 0-3.54 5.49 0 5.49zM628.6 369.62c3.53 0 3.54-5.49 0-5.49-3.53 0-3.53 5.49 0 5.49zM621.92 358.17c3.53 0 3.54-5.49 0-5.49-3.53 0-3.53 5.49 0 5.49zM435.8 318.56c3.53 0 3.54-5.49 0-5.49-3.53 0-3.53 5.49 0 5.49zM419.58 335.74c3.53 0 3.54-5.49 0-5.49-3.53 0-3.54 5.49 0 5.49zM386.17 337.23c3.53 0 3.54-5.49 0-5.49-3.53 0-3.53 5.49 0 5.49zM389.04 364.43c3.53 0 3.54-5.49 0-5.49-3.54 0.01-3.54 5.49 0 5.49zM405.74 377.32c3.53 0 3.54-5.49 0-5.49-3.53 0-3.54 5.49 0 5.49zM424.83 352.98c3.53 0 3.54-5.49 0-5.49-3.53 0-3.54 5.49 0 5.49zM413.85 339.14c3.53 0 3.54-5.49 0-5.49-3.53 0-3.54 5.49 0 5.49zM491.64 366.82c3.53 0 3.54-5.49 0-5.49-3.53 0-3.54 5.49 0 5.49zM498.32 376.36c3.53 0 3.54-5.49 0-5.49-3.53 0.01-3.54 5.49 0 5.49zM535.55 359.6c3.53 0 3.54-5.49 0-5.49s-3.54 5.49 0 5.49zM548.43 344.33c3.53 0 3.54-5.49 0-5.49-3.53 0-3.54 5.49 0 5.49zM562.27 359.6c3.53 0 3.54-5.49 0-5.49-3.53 0-3.54 5.49 0 5.49zM665.83 323.81c3.53 0 3.54-5.49 0-5.49-3.53 0-3.54 5.49 0 5.49zM679.19 334.31c3.53 0 3.54-5.49 0-5.49-3.53 0-3.54 5.49 0 5.49zM687.82 347.4c-0.33-0.72-0.65-1.45-0.98-2.17-0.39-0.85-1.48-1.36-2.37-1.36-1.05 0-1.77 0.56-2.37 1.36-0.92 1.23-1.07 2.83-0.74 4.29 0.33 1.45 1.99 2.3 3.38 1.92 1.49-0.41 2.25-1.93 1.92-3.38 0.01 0.27 0.02 0.3 0.01 0.1 0-0.2 0-0.17-0.02 0.09-0.14 0.41 0.09-0.11 0.19-0.25h-4.74c0.33 0.72 0.65 1.45 0.98 2.17 0.61 1.35 2.57 1.68 3.75 0.98 1.39-0.81 1.6-2.4 0.99-3.75zM656.76 346.3c3.53 0 3.54-5.49 0-5.49-3.53 0-3.54 5.49 0 5.49zM678.24 371.59c3.53 0 3.54-5.49 0-5.49s-3.54 5.49 0 5.49zM427.32 346.46c3.66-0.05 7.33-0.2 10.98 0.04 1.83 0.09 3.64 0.3 5.46 0.72 0.48 0.06 0.85 0.3 1.26 0.45 0.4 0.14 0.8 0.24 1.18 0.2 0.79-0.08 1.19-0.73 1.23-1.6 0.15-3.51 0.08-7.17 0.39-10.81 0.18-1.82 0.53-3.64 0.99-5.46 0.48-1.81 1.02-3.65 2.04-5.35l0.36 0.08c0.52 3.76 0.78 7.39 0.52 11.08-0.14 1.84-0.51 3.67-0.87 5.51-0.37 1.84-1 3.68-1.96 5.45-0.26 0.43-0.54 0.91-0.93 1.34-0.4 0.42-0.9 0.72-1.4 0.95-0.97 0.42-2.13 0.84-3.03 0.87-1.85 0.13-3.69 0.05-5.53-0.18-1.83-0.22-3.67-0.51-5.48-0.96-1.81-0.47-3.65-0.91-5.35-1.97l0.14-0.36zM639.61 351.27c-0.45 3.63-0.8 7.29-1.55 10.87-0.34 1.8-0.8 3.57-1.46 5.31-0.13 0.47-0.41 0.8-0.61 1.18-0.2 0.37-0.35 0.76-0.36 1.14-0.03 0.8 0.56 1.28 1.42 1.44 3.46 0.63 7.09 1.07 10.66 1.87 1.78 0.43 3.53 1.03 5.27 1.73 1.72 0.72 3.48 1.52 5.02 2.76l-0.13 0.34c-3.8 0-7.43-0.24-11.05-1-1.8-0.39-3.56-1.01-5.34-1.62-1.77-0.62-3.51-1.49-5.12-2.69-0.39-0.32-0.83-0.66-1.2-1.1-0.36-0.46-0.59-0.99-0.75-1.51-0.29-1.02-0.54-2.22-0.44-3.12 0.13-1.85 0.45-3.67 0.94-5.45 0.47-1.79 1-3.56 1.7-5.3 0.71-1.73 1.4-3.49 2.69-5.03l0.31 0.18z" fill="#302A27" /><path d="M421.07 332.79c2.64-0.63 5.28-0.82 7.92-0.68 1.32 0.13 2.64 0.4 3.96 0.46 0.66 0.03 1.32 0.02 1.98-0.02 0.64-0.03 1.45-0.09 1.5-0.37 0.13-0.26-0.01-0.89-0.14-1.56-0.12-0.65-0.22-1.3-0.31-1.95-0.19-1.3-0.39-2.6-0.48-3.91-0.17-2.62-0.19-5.26 0.14-7.96l0.18-0.02c0.82 2.55 1.3 5.17 1.62 7.81 0.15 1.32 0.2 2.65 0.26 3.97 0.03 0.66 0.06 1.32 0.06 1.99-0.04 0.61 0.12 1.43-0.56 2.28-0.38 0.4-0.91 0.45-1.26 0.43-0.36-0.03-0.67-0.06-1.01-0.08-0.66-0.04-1.32-0.04-1.98-0.01-1.32 0.07-2.64 0.34-3.96 0.47-2.64 0.14-5.28-0.04-7.92-0.66v-0.19zM389.56 361.24c3.9-0.73 7.79-1.01 11.69-0.97 1.95 0.08 3.91 0.3 5.87 0.31 1.88-0.05 4.11 0.1 5.45-0.95 0.63-0.52 0.72-1.28 0.74-2.2-0.01-0.94-0.03-1.94-0.01-2.91 0.02-1.95 0.02-3.91 0.12-5.86 0.25-3.9 0.62-7.79 1.36-11.67l0.18 0.01c0.42 3.93 0.47 7.84 0.41 11.74-0.05 1.95-0.21 3.9-0.35 5.85-0.06 0.98-0.15 1.93-0.26 2.94-0.06 0.99-0.55 2.34-1.61 2.92-1.01 0.6-2.08 0.6-3.06 0.65-0.99 0.01-1.96 0.02-2.94 0.07-1.95 0.12-3.89 0.43-5.85 0.62-3.91 0.24-7.83 0.16-11.73-0.37l-0.01-0.18zM406.04 374.38c3.3-0.74 6.57-1.16 9.87-1.4 1.66-0.06 3.33-0.02 4.99-0.22 0.82-0.1 1.64-0.24 2.43-0.45 0.4-0.1 0.79-0.23 1.16-0.38 0.36-0.15 0.81-0.32 0.94-0.48 0.17-0.13-0.01-1.29-0.01-2.04l-0.08-2.48-0.23-4.94c-0.09-3.29-0.2-6.58-0.16-9.96l0.18-0.03c1.1 3.2 1.69 6.53 1.93 9.89 0.11 1.68 0.07 3.36 0 5.04-0.03 0.84-0.08 1.68-0.17 2.51-0.04 0.42-0.1 0.84-0.16 1.25-0.06 0.34-0.07 1.07-0.66 1.51-0.54 0.35-0.94 0.35-1.36 0.47l-1.25 0.24-2.48 0.43c-1.64 0.33-3.25 0.82-4.9 1.14-3.31 0.53-6.69 0.59-10.04 0.07v-0.17zM536.25 358.3c0.4-0.27 0.93-0.05 1.25 0.17 0.37 0.24 0.62 0.49 0.9 0.75 0.55 0.52 1.07 1.05 1.58 1.6 1.02 1.1 2.01 2.23 2.86 3.47 0.84 1.25 1.57 2.58 2.45 3.78 0.46 0.59 0.86 1.21 1.42 1.63 0.54 0.45 1.22 0.6 1.66 0.33 0.44-0.25 0.76-0.91 1.22-1.53 0.43-0.62 0.91-1.21 1.39-1.8 0.97-1.17 1.97-2.31 3.09-3.33 2.26-2.03 4.78-3.77 7.57-4.98l0.1 0.15-6.33 6.25c-1.05 1.02-2.13 2.02-3.16 3.07l-1.54 1.58c-0.51 0.47-1.01 1.19-1.98 1.52-1.01 0.33-1.9-0.27-2.43-0.79-0.58-0.54-1-1.2-1.49-1.75-0.99-1.12-2.13-2.11-3.17-3.19-1.01-1.09-1.9-2.28-2.75-3.5-0.43-0.61-0.84-1.23-1.23-1.88-0.41-0.63-0.68-1.39-1.35-1.39l-0.06-0.16zM538.67 330.23c1.76 1.13 3.14 2.46 4.57 3.63 0.68 0.61 1.39 1.32 2.31 1.62 0.91 0.35 1.9 0.22 2.62-0.32 1.35-1.09 2.59-2.81 4.25-4.02 1.65-1.19 3.49-2.15 5.51-2.6l0.09 0.16c-1.44 1.48-2.93 2.72-4.4 3.98l-2.29 1.8c-0.76 0.62-1.66 1.28-2.74 1.59-1.08 0.36-2.21 0.21-3.19-0.01-1.01-0.2-2.09-0.42-3.03-0.94-1.84-1.12-3.06-2.85-3.84-4.76l0.14-0.13zM665.51 323.34a54.19 54.19 0 0 1-2.05 6.28c-0.81 2.04-1.68 4.07-2.69 6.02-1.04 1.94-2.23 3.8-3.33 5.7a75.045 75.045 0 0 0-2.99 5.86l-0.58-0.59c2.01-1.27 4.01-2.56 6.02-3.79 2.02-1.22 3.96-2.55 5.9-3.86 1.94-1.32 3.82-2.66 5.67-4.15 0.94-0.76 1.97-1.45 3.12-1.97 1.13-0.52 2.51-0.72 3.67-0.3l-0.04 0.18c-2.41-0.15-4.14 1.61-5.8 3.19-1.68 1.68-3.54 3.29-5.51 4.66-1.97 1.38-4.08 2.56-6.17 3.7-2.1 1.14-4.28 2.11-6.45 3.1l-1.36 0.62 0.78-1.21c1.19-1.84 2.25-3.76 3.16-5.75 0.9-2 1.65-4.06 2.51-6.08 0.88-2 1.85-3.95 2.83-5.91 0.99-1.95 2.02-3.88 3.16-5.78l0.15 0.08z" fill="#302A27" /><path d="M657.84 344.67c-2.2 2.62-2.99 5.8-4.04 9.01-0.53 1.61-1.24 3.16-1.89 4.74-0.69 1.56-1.24 3.16-1.72 4.79l-0.2-0.38c2.16 0.57 4.39 0.9 6.58 1.36l6.55 1.37c2.18 0.46 4.34 1.03 6.5 1.59 2.17 0.54 4.33 1.15 6.48 1.83l-0.03 0.18c-2.26-0.03-4.51-0.21-6.74-0.51s-4.46-0.65-6.64-1.18c-2.18-0.54-4.36-1.13-6.5-1.81-2.15-0.67-4.23-1.54-6.36-2.25l-0.3-0.1 0.1-0.28c0.57-1.6 1.05-3.23 1.4-4.89 0.39-1.66 0.71-3.33 1.22-4.95s1.1-3.26 1.95-4.8c0.83-1.54 2.02-2.97 3.53-3.85l0.11 0.13zM549.39 292.29c-0.29 3.29 0.05 6.51 0.24 9.82 0.17 3.32 0.03 6.68-0.43 9.96-0.48 3.28-1.24 6.51-1.77 9.75-0.52 3.25-0.87 6.53-0.99 9.81-0.1 3.28-0.03 6.54 0.28 9.76 0.32 3.22 0.98 6.41 1.66 9.61 1.37 6.41 2.76 12.87 3.72 19.41l-0.18 0.04c-2.09-6.28-3.89-12.6-5.45-19.03-0.73-3.23-1.26-6.54-1.47-9.89s-0.01-6.7 0.44-9.98l1.4-9.81c0.4-3.27 0.63-6.57 0.85-9.83 0.25-3.27 0.49-6.5 0.53-9.77 0.07-3.26 0.03-6.68 1-9.88l0.17 0.03zM414.87 311.94c4.88 1.98 9.33 5.03 13.05 8.78 1.82 1.92 3.42 4.03 5.02 6.1s3.22 4.13 4.74 6.28c3.02 4.26 5.42 8.94 8.53 13.02 2.99 4.19 6.35 8.16 9.46 12.39l-0.13 0.12c-3.95-3.44-7.67-7.16-10.89-11.36-1.6-2.1-2.98-4.39-4.18-6.7-1.27-2.28-2.44-4.63-3.63-6.95-1.23-2.28-2.66-4.47-4.35-6.44s-3.65-3.69-5.61-5.37c-3.83-3.45-7.84-6.64-12.09-9.72l0.08-0.15z" fill="#302A27" /><path d="M697.99 444.21c-9.16-4.02-20.18 1.15-29.74-2.43-6.86-2.58-11.92-6.12-19.55-4.61-4.57 0.91-8.54 3.48-12.97 4.75-6.39 1.82-10.77 0.28-16.67-2.23-6.62-2.82-11.78-3.54-18.68-1.18-6.79 2.32-11.34 4.83-18.86 4.21-5.1-0.42-10.07-1.99-15.16-2.59-4.3-0.5-8.48-0.43-12.69 0.61-6.78 1.67-13.82 6.48-21.1 4.64-4.42-1.12-7.89-4.72-12.18-6.21-3.79-1.31-7.7-1.41-11.65-0.88-11.96 1.6-21.28 6.67-33.69 3.27-9.18-2.52-17.65-6.55-27.4-5.51-11.7 1.24-21.69 6.49-33.79 6.34-11.59-0.14-22.93-2.04-34.51-0.37-11.86 1.71-24.47 6.66-35.57-0.26-1.42-0.89-2.78-0.28-3.51 0.79-1.45-0.11-3.01 0.76-3.05 2.63-0.68 30.08 2.05 60.25 7.8 89.78 5.48 28.21 14.38 55.66 21.08 83.59 5.8 24.16 12.85 48.79 28.49 68.62 10.13 12.85 21.95 24.19 33.33 35.9 10.19 10.5 18.06 22.21 32.24 27.73 9.76 3.8 20.32 5.05 30.78 5.57 46.22 2.27 107.13-6.89 137.96-45.27 11.92-14.84 17.49-33.42 27.22-49.58 20.5-34.06 27.41-69.32 34.93-107.95 4.12-21.17 7.65-42.47 9.91-63.93 1.18-11.17 2.12-22.41 2.38-33.64 0.11-5.07-0.17-9.51-5.35-11.79z" fill="#F6D41E" /><path d="M691.14 553.06c0.29-1.52 0.59-3.02 0.88-4.54-0.93-0.71-1.87-1.43-2.8-2.16-0.68-0.51-1.74-0.9-2.52-0.31-2.4 1.76-4.72 3.59-6.99 5.45-3.75-3-7.5-6-11.23-9-0.91-0.73-2.05-0.82-2.96 0-3.38 3.07-6.79 6.15-10.19 9.22-0.35 0.33-0.71 0.68-1.1 1.06-1.34-2.45-2.62-4.96-3.79-7.56-0.37-0.8-1.55-1.19-2.36-0.93-7.08 2.1-12.17 6.55-17.32 11.32-3.86-4.12-6.93-9.44-8.69-12.86-0.66-1.26-2.32-1.21-3.27-0.4-4.02 3.37-8.05 6.75-12.06 10.13-0.37 0.29-0.73 0.64-1.1 0.99-3.15-3.51-6.29-7.02-9.44-10.54-0.59-0.66-1.79-0.79-2.52-0.31-5.56 3.53-11.01 7.21-16.37 10.99a73.493 73.493 0 0 1-6.26-8.31c-0.48-0.73-1.46-1.24-2.36-0.95-6.13 2.1-10.87 5.16-15.66 8.63-4.13-4.37-8.27-8.76-12.4-13.13-0.64-0.68-1.74-0.75-2.54-0.33-5.73 3.09-10.81 7.01-15.02 11.78-2.96-2.82-5.62-5.89-7.74-8.52-0.88-1.08-2.63-0.6-3.29 0.42-2.12 3.31-4.37 6.55-6.88 9.59-3.49-4.52-6.59-9.29-9.44-14.25-0.64-1.12-2.38-1.39-3.27-0.42-3.44 3.68-6.82 7.76-10.3 11.71-3.53-3.07-6.93-6.4-10.3-9.24-0.91-0.77-2.05-0.79-2.96 0-5.52 4.77-11.21 9.37-17.12 13.68a80.49 80.49 0 0 1-7.45-8.29c-0.68-0.88-1.79-1.37-2.85-0.73-2.67 1.57-7.56 5.18-12.82 8.51a22 22 0 0 0-1.08-1.08c-3.84-3.42-9.68-9.15-15.2-9.2-3.95-0.04-7.43 2.8-10.46 4.98-0.46 0.33-0.91 0.71-1.37 1.1-2.85-4.08-5.87-7.99-10.21-9.7-6.92-2.71-11.53 5.51-15.48 9.81-0.11 0.11-0.22 0.26-0.35 0.38-0.88-1.79-1.77-3.42-2.8-4.57-8.43-9.35-14.53 1.02-23.42 2.87-0.13 0.02-0.26 0.05-0.37 0.11 0.29 1.3 0.59 2.6 0.9 3.9 0.18 0.02 0.38 0 0.59-0.04 8.03-1.67 13.72-11.98 21.48-0.6 0.37 0.53 0.68 1.06 0.99 1.59-2.89 3.68-6.49 8.14-9.62 8.71-3.62 0.64-8.85-3.4-12.66-6.48 0.53 2.18 1.08 4.34 1.63 6.51 4.5 3.38 9.81 6.33 13.99 3.99 3.24-1.83 6.02-5.71 8.58-8.91 1.37 2.85 2.85 5.6 5.85 7.46 8.07 5.05 14.56-3.11 20.4-9.02 2.07 2.47 4.13 4.94 6.38 7.24 1.7 1.74 3.09 3.09 5.67 3.22 4.35 0.2 9.07-4.01 12.46-6 0.99-0.59 1.98-1.17 2.95-1.76 0.42 0.44 0.84 0.86 1.24 1.3 2.49 2.63 5.07 7.56 9.2 7.76 4.43 0.24 9.79-4.61 13.59-7.7a69.33 69.33 0 0 0 4.56 3.7c3.07 2.27 7.3 6.15 11.54 5.34 3.88-0.73 6.73-5.2 9.17-7.79l5.62-5.98c1.46 1.23 2.91 2.43 4.35 3.66 2.47 2.09 5.73 5.93 9.35 6.15 3.06 0.2 6.04-1.67 8.76-4.35 4.54 5.31 9.46 8.71 13.41 5.43 2.12-1.77 3.71-5.36 5.38-8.31 4.99 4.3 10.61 7.87 16.08 8.63 5.16 0.73 7.15-2.82 10.46-5.98 0.68-0.64 1.37-1.28 2.09-1.88 3.11 3.29 6.22 6.59 9.33 9.88 0.82 0.88 2.09 0.66 2.95 0 4.12-3.18 8.31-6.27 12.55-9.31 4.65 4.87 10.21 9.75 16.03 9.07 3.86-0.44 7.19-4.61 9.86-6.86 0.6-0.49 1.19-1.01 1.79-1.52 4.06 5.52 9.13 11.8 15.07 9.79 4.21-1.41 7.74-4.46 11.09-7.77 2.84 2.45 5.95 4.32 9.22 4.98 4.7 0.97 7.17-2.01 10.48-4.94 0.82-0.73 1.65-1.48 2.47-2.23 2.54 4.19 5.38 8.14 8.43 12 0.68 0.86 2.25 0.73 2.95 0 3.79-4.04 7.68-7.94 11.82-11.63 1.01-0.91 2.1-1.98 3.27-3.04 2.71 2.18 5.43 4.35 8.16 6.53 0.42 0.33 0.88 0.48 1.32 0.49 0.27-1.35 0.55-2.71 0.81-4.06-2.34-1.87-4.68-3.75-7.02-5.62 2.63-1.86 5.46-2.81 8.26-0.95z m-302.12 7.06c-6.7 3.53-9.97-0.95-12.6-6.11 1.79-2.1 3.62-4.63 5.76-6.22 4.92-3.7 7.08-3.9 11.45 0.55 1.34 1.34 2.58 2.76 3.8 4.19-2.72 2.87-5.39 6.02-8.41 7.59z m20.32-0.2c-2.49-1.7-4.52-4.26-6.49-7.01 0.38-0.31 0.77-0.62 1.13-0.9 8.21-5.93 15-1.9 21.11 3.91-6.27 3.64-12.49 6.2-15.75 4z m36.28-1.3c-4.32 2.95-6.31 5.12-11.1 1.26-1.3-1.02-2.45-2.32-3.59-3.62 3.7-2.18 7.41-4.37 11.1-6.55a92.76 92.76 0 0 0 6.31 6.99c-0.91 0.64-1.8 1.3-2.72 1.92z m25.89 1.85c-5.78 4.74-9.4 2.49-14.89-1.87-0.6-0.49-1.17-1.01-1.76-1.5 5.32-3.91 10.48-8.05 15.49-12.35 3.11 2.62 6.2 5.23 9.29 7.83-2.59 2.84-5.3 5.55-8.13 7.89z m18.2-4.81c-1.63-1.02-3.22-2.2-4.77-3.46 2.84-3.04 5.69-6.07 8.54-9.11 1.88 3.35 4.87 8.58 8.31 13.34-3.26 2.78-6.3 2.89-12.08-0.77z m28.46 2.16c-4.01 6.44-6.44 3.26-10.04-1.21 2.32-2.98 4.37-6.26 5.96-8.84a95.72 95.72 0 0 0 6.31 6.77c-0.76 1.07-1.53 2.14-2.23 3.28z m29.07-0.59c-7.1 5.16-14.67 2.03-21.15-3.22 2.73-3.22 6.68-7.7 10.46-8.85 4.52-1.37 8.85 5.84 11.87 9.04 0.4 0.42 0.8 0.84 1.21 1.28-0.78 0.56-1.58 1.17-2.39 1.75z m16.08 6.68c-2.6-2.74-5.21-5.51-7.81-8.27 1.61-1.19 3.29-2.31 5.09-3.31 5.27-2.95 6.11-4.01 9.95-0.38 1.13 1.04 2.38 2.4 3.73 3.86-3.69 2.65-7.35 5.34-10.96 8.1z m31.34-1.26c-4.63 1.87-9.95-1.54-14.51-6 1.28-0.9 2.56-1.83 3.86-2.73 1.45-0.99 7.04-5.73 8.8-5.85 3.59-0.22 5.73 3.7 7.79 6 0.6 0.68 1.26 1.5 1.94 2.41-2.56 2.51-5.32 5.14-7.88 6.17z m32.93-4.1c-2.09 1.9-4.65 4.77-7.23 5.8-4.85 1.88-6.57-1.77-9.42-4.96-0.86-0.97-1.72-1.92-2.58-2.87 3.75-3.16 7.52-6.33 11.27-9.49 2.05 3.66 4.83 7.83 8.1 11.4-0.05 0.03-0.09 0.08-0.14 0.12z m17.56 2.42c-3.97 1.65-7.81 0.27-11.25-2.41 2.36-2.4 4.7-4.72 7.23-6.48 6.09-4.23 7.3-1.01 10.03 3.97-1.97 2.06-4.07 4.09-6.01 4.92z m18.07 5.74c-2.51-3.31-4.83-6.71-6.93-10.24 3.6-3.26 7.21-6.53 10.79-9.79 3.15 2.51 6.27 5.03 9.42 7.54-4.62 3.95-9.05 8.1-13.28 12.49z"  /><path d="M679.05 607.19c-1.08 0.13-2.16 0.26-3.26 0.38 0.13 0.49-0.13 0.82-0.6 1.28-1.02 1.01-2.65 1.74-3.86 2.52-1.54 1.01-3.07 2.01-4.63 3.02-0.77 0.51-1.46-0.68-0.71-1.17 1.68-1.1 3.37-2.2 5.05-3.29 0.66-0.44 2.03-1.01 2.51-1.66 0.48-0.15 0.71-0.33 0.75-0.49-6.15 0.79-12.26 1.65-18.4 2.52-0.13 0.99-1.37 1.72-2.2 2.32-2.63 1.92-5.6 3.2-8.78 4.01-0.9 0.22-1.28-1.12-0.38-1.34 2.12-0.51 4.15-1.26 6.04-2.3 0.82-0.46 1.59-0.97 2.31-1.52 0.55-0.38 0.91-0.66 1.1-0.91-5.84 0.82-11.67 1.61-17.53 2.27-0.02 0.82-0.42 1.65-1.43 2.16-2.41 1.24-5.56 1.1-8.21 1.34-1.37 0.13-2.58-1.06-2.82-2.29-1.79 0.13-3.57 0.24-5.36 0.33-3.64 0.2-7.26 0.37-10.9 0.49 0.02 0.13 0.07 0.27 0.05 0.42-0.15 1.94-2.85 1.99-4.32 2.34-3.82 0.9-7.13 3.18-10.72 4.61-0.86 0.35-1.23-0.99-0.38-1.32 2.8-1.12 5.36-2.69 8.16-3.79 1.21-0.46 4.88-0.71 5.03-2.21-4.08 0.15-8.14 0.26-12.22 0.33-0.11 1.26-1.02 2.43-2.73 2.43-1.65 0-2.54-1.12-2.73-2.34-4.68 0.07-9.4 0.13-14.09 0.15-0.02 0.13-0.04 0.27-0.11 0.44-0.7 1.48-3.66 2.14-5.01 2.67-2.91 1.15-5.67 2.54-8.34 4.12-0.79 0.46-1.48-0.73-0.71-1.19 3.15-1.87 6.44-3.37 9.86-4.72 1.02-0.38 1.92-0.7 1.98-1.32-2.56 0-5.12 0.02-7.65 0.02-0.62 0.93-2.67 1.39-3.48 1.79-2.67 1.37-5.01 3.13-7.13 5.16-0.64 0.64-1.65-0.33-1.01-0.97 2.69-2.6 5.62-4.17 8.85-5.98-4.19-0.02-8.34-0.02-12.49-0.04-0.38 1.12-1.41 2.12-2.71 1.99-1.06-0.11-1.59-0.04-2.6 0.37-1.39 0.55-3.2-0.59-3.51-1.92-0.04-0.15-0.05-0.31-0.07-0.46-2.51 0-5.03-0.02-7.56-0.02h-5.62c-0.07 0.35-0.26 0.69-0.57 1.06-1.76 1.99-4.61 3.6-6.88 5.01-0.75 0.48-1.48-0.71-0.69-1.19 1.72-1.06 3.38-2.21 4.98-3.46 0.64-0.51 1.21-0.75 1.21-1.43-3.27 0-6.55-0.02-9.81-0.02-0.2 1.3-1.41 2.51-2.84 2.41-2.34-0.13-4.65-0.07-6.97 0.2-1.48 0.16-2.78-1.32-2.84-2.65-3.79-0.02-7.54-0.02-11.31-0.04 0.07 0.16 0.16 0.31 0.22 0.48 0.48 1.59-0.68 1.98-2.07 2.18-2.54 0.4-4.99 0.49-7.5 1.17-2.54 0.7-4.99 1.59-7.45 2.49-0.84 0.33-1.23-1.01-0.37-1.32 3.2-1.17 6.4-2.36 9.75-3.05 1.24-0.26 2.49-0.46 3.77-0.57 0.82-0.05 1.68 0.26 1.87-0.6 0.07-0.31-0.02-0.55-0.18-0.79-5.67-0.02-11.36-0.07-17.03-0.11-0.97 1.76-4.77 2.76-6.46 3.4-3.71 1.43-7.59 2.23-11.56 2.62-0.91 0.09-0.91-1.28 0-1.37 4.76-0.46 9.37-1.63 13.7-3.64 0.35-0.16 1.61-0.64 2.23-1.02-4.06-0.04-8.1-0.07-12.17-0.13-0.35 0.99-1.21 1.77-2.6 1.77h-5.6c-1.45 0-2.32-0.86-2.63-1.88-4.32-0.07-8.62-0.15-12.93-0.22-0.02 0.07 0 0.16-0.02 0.24-0.27 1.15-2.2 1.52-3.15 1.94-2.71 1.21-5.43 2.43-8.14 3.64-0.82 0.38-1.54-0.81-0.71-1.17 2.51-1.13 5.03-2.27 7.56-3.4 1.26-0.57 2.41-0.66 2.58-1.28-3.91-0.05-7.83-0.13-11.76-0.2-4.5 0.69-8.87 1.83-13.1 3.49-0.86 0.35-1.23-0.99-0.38-1.32 2.36-0.93 4.79-1.7 7.23-2.32-3.44-0.09-6.86-0.15-10.32-0.24-0.18 1.19-1.08 2.25-2.71 2.25-1.7 0-2.62-1.15-2.74-2.41-1.34-0.04-2.65-0.07-3.99-0.11a43.333 43.333 0 0 1-13.32 6.33c-0.9 0.26-1.26-1.06-0.38-1.32 4.06-1.13 7.81-2.85 11.31-5.09-5.4-0.16-10.81-0.33-16.21-0.53-1.28 0.71-3.05 1.08-4.13 1.52-1.85 0.75-3.81 1.46-5.65 2.23-0.04 0.02-0.05 0.02-0.09 0.04 0-0.13 0-0.24 0.02-0.37v-0.11c0-0.31 0-0.64 0.02-0.97 2.01-0.79 4.46-1.46 6.46-2.47-2.12-0.09-4.26-0.16-6.4-0.24 0-0.44 0-0.9 0.02-1.37l8.56 0.33c0.27-0.26-0.05-0.37-0.75-1.06-0.95-0.9-2.8-1.52-3.97-2.12-1.23-0.62-2.49-1.23-3.75-1.79 0.04-0.49 0.04-0.99 0.05-1.48 1.65 0.73 3.29 1.52 4.9 2.34 1.92 0.99 4.43 1.94 5.93 3.48 0.15 0.16 0.26 0.44 0.18 0.68-0.02 0.02-0.04 0.04-0.04 0.05 5.29 0.18 10.56 0.35 15.86 0.49a16.576 16.576 0 0 0-4.68-3.31c-0.82-0.4-0.09-1.57 0.71-1.19 2.36 1.13 4.28 2.62 5.93 4.57 1.21 0.04 2.4 0.07 3.57 0.11 0.37-0.95 1.23-1.72 2.6-1.72 1.43 0 2.29 0.84 2.62 1.87 5.52 0.13 11.05 0.26 16.59 0.37 0.05 0 0.09 0 0.15-0.02-1.9-3.55-7.52-3.88-9.93-7.19-0.53-0.73 0.71-1.41 1.23-0.7 2.69 3.66 8.49 3.51 10.28 7.96 3.18 0.05 6.38 0.11 9.57 0.16a0.94 0.94 0 0 0-0.18-0.24c-0.77-1.02-1.85-1.92-2.74-2.85-1.59-1.65-6.38-4.68-5.09-7.3 0.4-0.8 1.63-0.09 1.24 0.7-0.57 1.15 5.63 6.44 6.7 7.54 0.59 0.6 1.57 1.34 2.12 2.2 4.41 0.07 8.82 0.15 13.24 0.2 0.2-1.17 1.1-2.21 2.71-2.21h5.6c1.66 0 2.56 1.12 2.73 2.34 4.01 0.05 8.01 0.09 12.02 0.13-0.77-0.84-2.4-1.57-2.93-1.77-2.52-1.08-5.09-1.63-7.85-1.85-0.91-0.07-0.93-1.45 0-1.37 2.2 0.16 12.24 1.7 13.06 5.01 5.05 0.04 10.12 0.07 15.18 0.11-3.93-2.74-9.15-3.4-13.06-6.26-0.73-0.53-0.02-1.72 0.71-1.19 2.87 2.1 6.26 3.06 9.49 4.41 1.48 0.62 3.86 1.66 5.38 3.05 4.26 0.02 8.49 0.02 12.73 0.04 0.49-0.84 1.45-1.34 2.51-1.46 2.32-0.27 4.63-0.33 6.97-0.2 1.17 0.07 2.2 0.71 2.63 1.7 3.07 0 6.17 0 9.24 0.02-0.24-0.15-0.49-0.26-0.8-0.46-2.32-1.46-4.13-4.01-7.06-4.26-0.91-0.07-0.93-1.45 0-1.37 1.76 0.16 3.13 0.86 4.5 1.9 1.04 0.77 1.96 1.66 3 2.36 0.8 0.53 1.79 0.86 2.51 1.52 0.09 0.09 0.15 0.2 0.22 0.31h5.98c2.6 0 5.21 0.02 7.81 0.02 0.35-0.68 0.97-1.21 1.81-1.54a8.91 8.91 0 0 1 4.12-0.57c1.28 0.13 2.54 0.9 2.8 2.12 4.04 0.02 8.09 0.02 12.13 0.02-1.01-0.46-2.01-0.91-3.05-1.37-2.07-0.95-4.17-1.88-6.26-2.84-0.82-0.38-0.11-1.56 0.73-1.19 2.69 1.23 5.36 2.43 8.05 3.64 0.73 0.35 2.69 0.84 3.46 1.77 2.29 0 4.57-0.02 6.88-0.02-0.7-0.51-1.7-0.91-2.34-1.3-1.98-1.15-3.93-2.3-5.91-3.46-0.77-0.46-0.05-1.65 0.73-1.19 2.71 1.61 5.43 3.2 8.14 4.79 0.53 0.33 1.35 0.68 1.94 1.15 4.96-0.04 9.92-0.07 14.85-0.15 0.35-0.99 1.21-1.77 2.62-1.77 1.35 0 2.21 0.75 2.56 1.68 3.75-0.07 7.52-0.16 11.25-0.29-0.95-0.48-2.27-0.95-2.71-1.17-0.82-0.42-1.66-0.84-2.49-1.28-2.34-1.21-4.68-2.41-7.02-3.6-0.82-0.4-0.09-1.59 0.71-1.17 3.18 1.59 6.35 3.24 9.51 4.87 1.02 0.53 3.2 1.21 4.45 2.29 3.33-0.11 6.62-0.26 9.93-0.42 2.45-0.11 4.88-0.29 7.34-0.48 0.42-1.02 1.46-1.66 2.67-1.77 1.08-0.09 2.18-0.2 3.27-0.29 0.64-0.05 1.48 0 2.05-0.29 1.66-0.86 3.24-0.04 3.91 1.21 5.73-0.66 11.4-1.41 17.09-2.2a1.26 1.26 0 0 0-0.27-0.2c-3.51-2.31-8.45-3.24-12.64-3.55-0.91-0.07-0.91-1.45 0-1.37 3.29 0.24 6.48 0.86 9.55 2.01 1.46 0.55 4.41 1.43 5.62 2.8 5.82-0.82 11.62-1.65 17.43-2.38-0.27-0.2-0.55-0.42-0.82-0.62-3.27-2.25-7.02-3.66-10.99-4.37-0.9-0.16-0.51-1.48 0.38-1.32 2.73 0.49 5.38 1.3 7.87 2.51 1.57 0.75 4.32 2.03 5.73 3.51 1.5-0.18 3-0.37 4.48-0.53-0.18 0.47-0.31 0.97-0.44 1.44zM404.06 572.66c-0.64 0.33-0.89 0.86-1.11 1.4-0.2 0.55-0.38 1.14-0.6 1.8-0.44 1.26-0.95 2.46-1.48 3.65-1.09 2.36-2.3 4.6-3.62 6.78a85.088 85.088 0 0 1-4.25 6.32c-1.54 2.03-3.13 4.13-5.26 6 0.1-5.58 2.11-10.67 4.83-15.16 1.37-2.25 2.94-4.36 4.72-6.3 0.89-0.97 1.84-1.91 2.85-2.79 0.52-0.41 1.02-0.91 1.7-1.32 0.64-0.41 1.54-0.7 2.22-0.38zM414.51 573.97c-0.64 2.54-1.56 4.73-2.53 6.86-0.98 2.12-2.04 4.14-3.18 6.12a73.885 73.885 0 0 1-3.69 5.83c-1.36 1.91-2.78 3.81-4.66 5.64-0.27-2.61 0.11-5.08 0.75-7.46a29.27 29.27 0 0 1 2.84-6.75c1.22-2.11 2.69-4.09 4.41-5.84 1.74-1.74 3.68-3.32 6.06-4.4zM428.89 571.89c0.38-0.02 0.79 0.35 0.91 0.8 0.13 0.44 0.1 0.87 0.04 1.29s-0.2 0.81-0.4 1.21l-0.46 0.97a42.75 42.75 0 0 1-2 3.58c-1.42 2.29-2.95 4.44-4.52 6.52s-3.18 4.09-4.83 6.1c-1.67 2.01-3.33 4.04-5.33 6.16-0.15-2.92 0.57-5.73 1.61-8.35 1.07-2.61 2.51-5.03 4.18-7.23s3.56-4.19 5.62-5.99c1.03-0.89 2.11-1.75 3.24-2.54l0.85-0.56c0.22-0.12 0.44-0.3 0.66-0.49 0.21-0.19 0.4-0.41 0.51-0.65 0.14-0.23 0.17-0.52-0.08-0.82zM441.57 572.64c0.53 2.71-0.2 5.49-1.17 7.89-1 2.42-2.29 4.57-3.47 6.57l-3.55 6.09c-1.26 2.08-2.59 4.24-4.44 6.26-0.32-2.71-0.12-5.27 0.42-7.82 0.55-2.53 1.48-5.04 2.86-7.33 1.35-2.26 2.94-4.17 4.51-6 1.58-1.82 3.14-3.53 4.84-5.66zM460.67 573.64c-1.26 2.59-2.69 4.81-4.1 7-1.43 2.17-2.88 4.26-4.35 6.33s-2.98 4.12-4.57 6.18c-1.61 2.05-3.24 4.12-5.29 6.15-0.07-2.89 0.56-5.63 1.51-8.23 0.96-2.59 2.28-5.05 3.89-7.29s3.5-4.29 5.64-6.04c2.14-1.73 4.52-3.22 7.27-4.1zM471.12 575.17c-0.88 2.49-2.05 4.61-3.26 6.65-1.23 2.03-2.54 3.95-3.94 5.81s-2.88 3.65-4.49 5.39c-1.63 1.73-3.35 3.43-5.5 4.96 0.16-2.65 0.91-5.04 1.88-7.32a31.23 31.23 0 0 1 3.73-6.34c1.48-1.96 3.17-3.75 5.07-5.33 1.93-1.54 4.02-2.93 6.51-3.82zM484.91 573.77c-0.56 2.47-1.48 4.59-2.47 6.63-1.01 2.03-2.15 3.94-3.39 5.78s-2.6 3.6-4.11 5.29c-1.53 1.68-3.16 3.31-5.25 4.74 0.09-2.54 0.73-4.82 1.57-7 0.86-2.17 1.95-4.21 3.25-6.12s2.79-3.68 4.49-5.28c1.71-1.58 3.6-3.02 5.91-4.04zM498.55 573.33c-0.28 2.51-0.97 4.72-1.76 6.86-0.81 2.12-1.77 4.14-2.86 6.09a45.293 45.293 0 0 1-3.69 5.62c-1.4 1.79-2.93 3.54-4.93 5.09-0.06-2.53 0.42-4.84 1.09-7.07 0.69-2.21 1.61-4.32 2.73-6.32s2.44-3.89 3.96-5.63c1.56-1.74 3.28-3.36 5.46-4.64zM511.35 574.57c-0.21 2.53-0.92 4.78-1.78 6.94-0.88 2.15-1.96 4.17-3.22 6.09a35.665 35.665 0 0 1-4.29 5.38c-1.63 1.65-3.42 3.19-5.66 4.39 0.37-2.52 1.17-4.71 2.09-6.82 0.94-2.1 2.03-4.08 3.28-5.96a42.8 42.8 0 0 1 4.17-5.38c1.56-1.68 3.26-3.29 5.41-4.64zM522.95 576.43c0 2.25-0.48 4.23-1.1 6.12-0.64 1.88-1.46 3.65-2.44 5.33s-2.13 3.26-3.46 4.73c-1.35 1.46-2.84 2.84-4.81 3.94 0-2.26 0.47-4.23 1.09-6.12a28.64 28.64 0 0 1 2.45-5.33 29.24 29.24 0 0 1 3.46-4.73c1.36-1.46 2.85-2.84 4.81-3.94zM535.38 575.12c-0.24 2.6-0.95 4.92-1.8 7.16a42.07 42.07 0 0 1-3.13 6.35 41.217 41.217 0 0 1-4.14 5.75c-1.58 1.8-3.3 3.51-5.49 4.93 0.23-2.61 0.94-4.93 1.79-7.16 0.87-2.22 1.92-4.34 3.14-6.35s2.59-3.93 4.15-5.74c1.58-1.8 3.3-3.51 5.48-4.94zM549.4 574.66c-0.2 2.45-0.9 4.69-1.76 6.85-0.87 2.17-1.97 4.08-3.2 5.96a37.066 37.066 0 0 1-4.2 5.27c-1.59 1.63-3.32 3.17-5.51 4.4 0.28-2.5 1.03-4.69 1.91-6.78 0.9-2.09 1.98-4.05 3.22-5.91 1.22-1.86 2.68-3.63 4.16-5.26 1.53-1.64 3.2-3.19 5.38-4.53zM562.16 572.95c-0.29 2.84-1.05 5.41-1.96 7.91-0.93 2.48-2.04 4.86-3.32 7.15a50.483 50.483 0 0 1-4.35 6.57c-1.65 2.08-3.44 4.08-5.72 5.8 0.28-2.84 1.04-5.42 1.95-7.91 0.93-2.48 2.04-4.86 3.33-7.14a52.24 52.24 0 0 1 4.35-6.57c1.66-2.08 3.45-4.08 5.72-5.81zM575.35 574.68c-0.01 2.39-0.52 4.52-1.2 6.57-0.7 2.04-1.61 3.96-2.69 5.78s-2.35 3.54-3.81 5.12c-1.48 1.57-3.11 3.04-5.22 4.18 0.19-2.38 0.81-4.46 1.56-6.46 0.76-1.98 1.69-3.86 2.76-5.65s2.28-3.49 3.67-5.1c1.39-1.6 2.92-3.14 4.93-4.44zM586.6 576.49c-0.07 2.08-0.6 3.84-1.25 5.51-0.67 1.66-1.52 3.19-2.52 4.62s-2.16 2.75-3.49 3.94c-1.35 1.18-2.84 2.27-4.77 3.03 0.07-2.08 0.59-3.85 1.25-5.52 0.67-1.66 1.52-3.19 2.53-4.61s2.16-2.74 3.49-3.93c1.35-1.18 2.83-2.26 4.76-3.04zM597.79 575.74c0.03 2.34-0.39 4.41-0.93 6.42-0.57 1.99-1.3 3.89-2.19 5.72a33.43 33.43 0 0 1-3.14 5.25c-1.24 1.67-2.61 3.28-4.48 4.69-0.22-2.33 0.09-4.46 0.57-6.5 0.5-2.04 1.22-3.99 2.12-5.84 0.91-1.86 2-3.62 3.29-5.27 1.31-1.65 2.79-3.2 4.76-4.47zM612.96 575.42c0 2.31-0.47 4.35-1.09 6.32-0.64 1.95-1.46 3.8-2.45 5.55-0.98 1.76-2.14 3.42-3.47 4.97-1.36 1.55-2.86 3.01-4.84 4.2-0.01-2.31 0.46-4.36 1.08-6.32 0.64-1.95 1.46-3.8 2.45-5.55s2.14-3.41 3.48-4.97c1.36-1.54 2.86-3 4.84-4.2zM627.98 574.48c-0.56 2.53-1.44 4.71-2.38 6.83-0.96 2.1-2.02 4.11-3.18 6.06a61.214 61.214 0 0 1-3.8 5.69c-1.41 1.84-2.91 3.66-4.87 5.35-0.14-2.59 0.33-4.99 1.02-7.3 0.72-2.3 1.71-4.49 2.93-6.54s2.68-3.97 4.35-5.69c1.71-1.72 3.6-3.28 5.93-4.4zM651.77 572.65c-0.56 2.53-1.44 4.71-2.38 6.83-0.96 2.1-2.02 4.11-3.18 6.06a61.214 61.214 0 0 1-3.8 5.69c-1.41 1.84-2.91 3.66-4.87 5.35-0.14-2.59 0.33-4.99 1.02-7.3 0.72-2.3 1.71-4.49 2.93-6.54s2.68-3.97 4.35-5.69c1.7-1.72 3.59-3.28 5.93-4.4zM662.74 572.65c-0.56 2.53-1.44 4.71-2.38 6.83-0.96 2.1-2.02 4.11-3.18 6.06a61.214 61.214 0 0 1-3.8 5.69c-1.41 1.84-2.91 3.66-4.87 5.35-0.14-2.59 0.33-4.99 1.02-7.3 0.72-2.3 1.71-4.49 2.93-6.54s2.68-3.97 4.35-5.69c1.71-1.72 3.6-3.28 5.93-4.4zM673.72 572.65c-0.56 2.53-1.44 4.71-2.38 6.83-0.96 2.1-2.02 4.11-3.18 6.06a61.214 61.214 0 0 1-3.8 5.69c-1.41 1.84-2.91 3.66-4.87 5.35-0.14-2.59 0.33-4.99 1.02-7.3 0.72-2.3 1.71-4.49 2.93-6.54s2.68-3.97 4.35-5.69c1.7-1.72 3.59-3.28 5.93-4.4zM684.7 572.65c-0.56 2.53-1.44 4.71-2.38 6.83-0.96 2.1-2.02 4.11-3.18 6.06a61.214 61.214 0 0 1-3.8 5.69c-1.41 1.84-2.91 3.66-4.87 5.35-0.14-2.59 0.33-4.99 1.02-7.3 0.72-2.3 1.71-4.49 2.93-6.54s2.68-3.97 4.35-5.69c1.7-1.72 3.59-3.28 5.93-4.4zM637.24 578.66c0.16 1.91-0.13 3.53-0.54 5.07a19.77 19.77 0 0 1-1.77 4.28c-0.75 1.34-1.64 2.59-2.72 3.75-1.1 1.15-2.33 2.24-4.06 3.1-0.31-1.9-0.11-3.56 0.25-5.14 0.38-1.57 0.97-3.03 1.74-4.4 0.77-1.36 1.71-2.63 2.85-3.78 1.16-1.11 2.47-2.15 4.25-2.88zM387.01 573.7c-0.65 2.37-1 4.36-1.47 6.44-0.46 2.05-0.98 4.1-1.66 6.16-0.68 2.05-1.52 4.11-2.67 6.1-1.16 1.95-2.61 3.96-4.75 5.24 0.17-2.45 0.35-4.55 0.7-6.71 0.34-2.14 0.82-4.26 1.52-6.37 0.71-2.1 1.63-4.2 2.93-6.16 1.3-1.92 3.04-3.86 5.4-4.7zM375.75 572.55c-0.53 2.53-1.21 4.71-1.88 6.87-0.69 2.15-1.42 4.24-2.22 6.33-0.81 2.09-1.7 4.17-2.76 6.24-1.08 2.07-2.28 4.14-4 6.07-0.47-2.55-0.41-4.96-0.12-7.34 0.31-2.37 0.89-4.71 1.77-6.96 0.87-2.25 2.04-4.42 3.55-6.38 1.5-1.93 3.32-3.69 5.66-4.83z" fill="#302A27" /><path d="M671.59 629.66c-0.66 1.76-1.35 3.49-2.07 5.21-1.46-0.16-2.95-0.33-4.41-0.51-14.2-1.72-28.45-2.98-42.75-3.49-29.97-1.06-58.94 2.21-88.4 7.43-26.89 4.77-53.34 4.57-80.47 1.76-27.86-2.87-55.58-7.19-83.66-6.84-0.51-1.83-0.99-3.66-1.46-5.47 27.99-0.51 55.63 3.71 83.42 6.66 28.43 3 55.81 3.13 84.02-1.98 27.57-5.01 54.92-7.9 82.98-7.15 14.31 0.38 28.58 1.5 42.79 3.18 3.35 0.38 6.68 0.81 10.01 1.2z"  /><path d="M665.66 643.62c-1.7 3.68-3.55 7.32-5.54 10.96-16.3-0.2-32.62-0.8-48.92 0.22-27.92 1.76-55.41 6.02-83.44 5.95-27.62-0.07-55.28 0.42-82.89 0.22-13.12-0.11-26.27-1.12-39.06-4.26-10.52-2.58-20.67-6.31-31.3-8.12-1.32-3.8-2.51-7.65-3.62-11.51 10.83 1.23 21.11 4.45 31.67 7.39 13.9 3.88 27.9 5.42 42.31 5.52 27.61 0.18 55.27-0.29 82.89-0.22 28.03 0.07 55.52-4.21 83.44-5.95 18.14-1.14 36.31-0.28 54.46-0.2z"  /><path d="M653.9 665.42a179.75 179.75 0 0 0-3 5.65c-42.9 2.18-85.91-2.47-128.92-1.76-25.3 0.42-50.47 3.93-75.79 4.08-11.49 0.05-23.01-0.64-34.34-2.76-10.26-1.92-21.06-7.32-31.7-7.7-0.82-1.79-1.59-3.6-2.32-5.43 8.74-0.13 16.89 3.22 25.61 5.58 12.82 3.49 26.11 4.72 39.35 4.83 25.26 0.2 50.38-3.42 75.63-4.01 45.18-1.06 90.38 4.14 135.48 1.52zM644.8 683.73c-0.91 1.9-1.81 3.8-2.74 5.69-15.97 1.28-32.05 1.17-48.13 0.88-24.31-0.42-48.59 0.05-72.9 0.27-24.88 0.24-49.36-1.1-74.09-3.7-18-1.88-35.03-1.66-52.36 0.27-1.34-1.66-2.6-3.38-3.79-5.12 16.87-2.18 33.5-2.87 50.93-1.17 24.13 2.38 47.93 4.35 72.19 4.28 24.9-0.07 49.8-0.86 74.69-0.42 18.77 0.34 37.56 0.73 56.2-0.98zM635.75 701.17c-1.21 2.01-2.47 3.99-3.84 5.91-32.86 3.73-65.56 9.84-98.75 7.65-25.48-1.68-50.56-7.1-75.99-9.38a514.222 514.222 0 0 0-48.53-2.07c-1.7-1.81-3.38-3.62-5.03-5.45 17.87-0.24 35.75 0.4 53.56 2.03 25.43 2.31 50.51 7.7 75.99 9.38 34.46 2.28 68.43-4.41 102.59-8.07zM618.08 722.39c-5.07 4.46-10.61 8.42-16.52 11.87-4.85 0.02-9.73-0.13-14.6-0.37-19.45-0.93-38.73-1.99-58.21-1.98-33.18 0.02-66.74-8.05-99.97-7.96-0.29-0.29-0.57-0.6-0.86-0.9-3.09-3.18-6.24-6.35-9.35-9.53 34.41-1.5 68.55 7.08 103.05 7.39 20.2 0.18 40.19 0.57 60.35 1.72 12.12 0.71 24.2 1.04 36.11-0.24zM580.32 744.29c-6.2 2.31-12.6 4.26-19.12 5.85-20.74 0.2-41.33-0.59-62.05-3.71-17.93-2.69-35.69-4.17-53.56-4.77-2.03-1.79-3.97-3.73-5.87-5.73 17.98 0.29 35.91 1.45 53.84 4.13 29.1 4.37 57.43 5.09 86.76 4.23z"  /><path d="M533.87 202.87c-15.84-0.3-34.66 2.89-44.54 16.52-11.65 16.08-7.53 41.13-24.33 53.67-2.81-2.62-5.12-5.62-7.28-8.74 2.74-16.17 0.06-32.68-8.56-46.76-5.03-8.23-18.14-24.46-27.22-11.19-6.46 9.44-2.86 30.03 5.28 37.67 2.64 2.47 5.82 3.59 8.95 5.25 5.06 2.69 8.41 5.95 11.72 10.56 4.35 6.06 7.93 12.34 13.46 17.36 0.88 20.41-1.01 40.8-0.13 61.17 0.02 0.48 0.05 0.97 0.08 1.45-0.19-0.19-0.37-0.38-0.55-0.59-0.79-0.92-1.54-1.84-2.3-2.77-0.08-0.74-0.44-1.46-1.2-1.99-0.31-0.22-0.63-0.42-0.94-0.64-2.38-2.96-4.78-5.9-7.53-8.64-10.86-10.82-23.42-19.97-35.43-29.47-10.91-8.63-21.79-18.08-35.38-22.12-9.83-2.92-23.6-5.55-33.24-1.01-8.9 4.2-11.59 14.61-7.54 23.27 4.38 9.36 14.62 13.56 24.25 15 16.74 2.5 33.02 2.17 49.49 7.08 15.15 4.52 29.27 11.52 42.3 20.43 0.95 1.19 1.88 2.4 2.78 3.63 1.74 2.4 3.36 5.55 6.01 7.06 1.67 16.61 4.95 33.04 4.28 49.85-0.14 3.53 5.35 3.53 5.49 0 0.66-16.61-2.54-32.86-4.22-49.28 7.27-1.9 15.43-12.16 19.07-16.76 2.17-2.74-1.69-6.65-3.88-3.88-3.63 4.58-9.81 12.78-15.83 13.19-0.08-1.27-0.16-2.54-0.21-3.81-0.86-19.96 0.92-39.95 0.16-59.95 0.06-0.04 0.12-0.06 0.18-0.1 6.31-4.42 10.06-10.49 12.76-17.2 0.35 0.15 0.77 0.22 1.27 0.16 8.88-1.04 21.17-0.24 29.24-4.58 8.19-4.41 14.14-15.18 19.88-22.2 5.1-6.25 14-14.27 13.47-23.21-0.38-6.41-4.04-8.32-9.81-8.43zM436.77 424.98c-4.71-6.56-10.96-10.99-17.19-15.65-0.16-0.91-0.72-1.76-1.81-2.16-0.6-0.22-1.2-0.41-1.81-0.61-1.28-1-2.54-2.02-3.78-3.11-5.22-4.58-7.87-9.61-10.76-15.74-1.98-4.21-4.28-8.45-8.47-10.83-5.48-3.11-13.25-3.01-19.34-3.83-7.01-0.94-14.06-2.16-21.14-2.43-14.27-0.55-25.59 6.31-39.02 9.71-11.48 2.91-21.49 6.23-29.78 15.14-6.94 7.45-11.54 17.12-12.73 27.25-0.93 7.91-0.31 18.71 8.03 22.53 9.8 4.49 23.22-2.4 32.07-6.11 17.19-7.21 33.71-15.64 51.49-21.44 16.18-5.27 34.16-11.03 51-6.14 6.59 4.94 13.62 9.37 18.51 16.18 2.03 2.86 6.8 0.12 4.73-2.76z" fill="#ABCB66" /><path d="M697.78 453.75c-4.32-5.2-6.3-10.95-10.2-16.4-3.47-4.86-8.83-8.34-13.56-11.85-14.52-10.76-29.77-20.6-45.14-30.1-10.51-6.5-25.69-11.5-38.01-6.85-5.82 2.2-11.03 7.8-15.51 11.89-6.1 5.57-11.75 11.57-17.11 17.85-0.24 0.29-0.4 0.59-0.52 0.89-0.83-1.05-1.77-2.04-2.8-2.99 0.52-0.43 0.83-1.11 0.72-2.04-2.06-16.7 6.32-31.71 7.39-48.12 0.1-1.56 0.08-3.11-0.01-4.66 0.09-0.05 0.18-0.09 0.27-0.15 18.32-12.85 45.34-17.12 54.81-40.4 2.7-6.64 2.02-15.26-4.03-19.89-6.54-5-16.04-3.09-22.97-0.1-16.25 7.01-32.41 23.46-34.67 41.58-0.75 6 0.74 11.59 1.11 17.53 0.41 6.42-0.76 12.73-2.28 18.94-1.91 7.79-4.19 15.35-5.08 23.13-3.83-11.85-8.33-23.67-14.16-34.58-1.3-2.43-2.59-4.38-4.1-6.02 0.35-0.42 0.58-0.97 0.6-1.66 0.62-19.1-0.97-38.74-15.58-52.68-4.14-3.95-11.24-10.24-17.45-9.63-6.84 0.68-6.45 8.38-6.51 13.47-0.19 16.61 3.09 35.21 17.62 45.46 3.15 2.22 6.41 3.04 9.82 4.61 7.47 3.44 10.35 7.96 13.66 15.11 5.19 11.23 9.45 22.81 13.05 34.64-12.62-6.92-30.23-9.8-40.13-10.36-16.32-0.92-28.39 3.42-42.54 11.19-11.73 6.44-27.37 13.9-35.39 25.06-5.8 8.07-11.59 23.25-8.11 33.16 3.37 9.58 14.06 11.7 22.68 8.09 6.32-2.65 10.79-8.05 15.3-12.98 5.26-5.76 11.16-10.97 16.11-17 5.37-6.55 9.21-14.13 14.76-20.57 4.95-5.74 15.21-18.64 23.26-18.98 1.31-0.06 2.13-0.85 2.47-1.82 4.55 0.67 9.01 1.65 13.23 2.85 11.54 3.28 31.67 11.49 26.8 26.93-1.07 3.38 4.23 4.82 5.29 1.46 1.78-5.66 1.3-10.52-0.71-14.69 0.67 0.05 1.36-0.2 1.95-0.9 6.5-7.62 14.6-17.82 23.46-24.27 0.78 0.61 1.84 0.85 2.97 0.28 16.42-8.35 24.41 27.39 30.19 37.4 6.3 10.91 14.94 20.83 26.6 26.12 13.77 6.24 29.28 5.08 43.88 3.33 6.92-0.82 14.65-3.97 8.57-11.28z" fill="#ABCB66" /><path d="M674.71 296.58c-6.55-1.05-13.64 0.18-20.22 0.64-4.67 0.33-5.2 0.88-6.13-3.99-0.86-4.51-0.66-9.36-0.45-13.92 0.36-7.86 1.4-17.28-5.77-22.63-5.89-4.39-14.33-3.39-19.82 1.07-6.71 5.45-8.96 14.83-7.69 23.11 1.69 11.07 8.6 17.49 17.21 23.69 1.46 1.05 3.42 2.04 4.55 3.45 2.37 2.96 1.64 2.93-0.59 6.12-1.6 2.28-3.52 4.39-5.19 6.62-4.32 5.76-8.34 11.74-12.02 17.92-7.5 12.6-13.45 26-18.14 39.88-1.13 3.35 4.17 4.79 5.29 1.46 7.77-23 19.44-44.26 34.81-63.06 9.31 5.22 19.84 7.72 30.52 6.04 6.98-1.1 16.04-4.65 16.72-12.87 0.62-7.44-6.46-12.47-13.08-13.53zM737.43 391.64c-5.76-2.56-12.23-2.05-18.23-3.65-4.97-1.33-9.4-4.13-14.41-5.42-12.24-3.16-26.03-1.84-38.5-1.39-1.66 0.06-2.53 1.31-2.63 2.6-0.03 0-0.06-0.01-0.09-0.01-8.54-0.98-17.41 0.08-25.84 1.45-3.48 0.57-2 5.86 1.46 5.29 6.83-1.11 14.3-2.17 21.24-1.43 6.75 0.73 8.97 4.97 13.51 8.78 2.78 2.34 6.17 3.5 9.45 4.93 5.17 2.27 9.31 5.5 13.95 8.62 8.48 5.7 18.3 8.19 28.37 9.21 6.88 0.7 19.49 3.23 25.71-1.02 10.2-6.96-7.04-24.87-13.99-27.96z" fill="#ABCB66" /><path d="M395.72 423.61c3.53 0 3.54-5.49 0-5.49-3.53 0-3.54 5.49 0 5.49zM406.69 426.47c3.53 0 3.54-5.49 0-5.49-3.53 0.01-3.53 5.49 0 5.49zM445.35 417.88c3.53 0 3.54-5.49 0-5.49-3.53 0.01-3.54 5.49 0 5.49zM442.96 406.91c3.53 0 3.54-5.49 0-5.49-3.53 0-3.53 5.49 0 5.49zM457.28 396.89c3.53 0 3.54-5.49 0-5.49-3.53 0-3.54 5.49 0 5.49zM489.73 395.93c3.53 0 3.54-5.49 0-5.49-3.53 0-3.54 5.49 0 5.49zM503.09 391.16c3.53 0 3.54-5.49 0-5.49-3.53 0-3.53 5.49 0 5.49zM520.27 439.84c3.53 0 3.54-5.49 0-5.49-3.53 0-3.53 5.49 0 5.49zM535.55 429.81c3.53 0 3.54-5.49 0-5.49-3.54 0.01-3.54 5.49 0 5.49zM542.23 435.54c3.53 0 3.54-5.49 0-5.49s-3.54 5.49 0 5.49zM573.72 391.64c3.53 0 3.54-5.49 0-5.49-3.53 0-3.53 5.49 0 5.49zM574.68 381.14c3.53 0 3.54-5.49 0-5.49-3.53 0-3.54 5.49 0 5.49zM590.43 408.34c3.53 0 3.54-5.49 0-5.49s-3.54 5.49 0 5.49zM596.63 382.57c3.53 0 3.54-5.49 0-5.49-3.53 0-3.54 5.49 0 5.49zM658.67 401.18c3.53 0 3.54-5.49 0-5.49-3.53 0-3.54 5.49 0 5.49zM673.46 410.72c3.53 0 3.54-5.49 0-5.49-3.53 0.01-3.53 5.49 0 5.49zM418.17 385.1c3.66-0.05 7.33-0.2 10.98 0.04 1.83 0.09 3.64 0.3 5.46 0.72 0.48 0.06 0.85 0.3 1.26 0.45 0.4 0.14 0.8 0.24 1.18 0.2 0.79-0.08 1.19-0.73 1.23-1.6 0.15-3.51 0.08-7.17 0.39-10.81 0.18-1.82 0.53-3.64 0.99-5.46 0.48-1.81 1.02-3.65 2.04-5.35l0.36 0.08c0.52 3.76 0.78 7.39 0.52 11.08-0.14 1.84-0.51 3.67-0.87 5.51-0.37 1.84-1 3.68-1.96 5.45-0.26 0.43-0.54 0.91-0.93 1.34-0.4 0.42-0.9 0.72-1.4 0.95-0.97 0.42-2.13 0.84-3.03 0.87-1.85 0.13-3.69 0.05-5.53-0.18-1.83-0.22-3.67-0.51-5.48-0.96-1.81-0.47-3.65-0.91-5.35-1.97l0.14-0.36zM490.25 365.49c-0.43 2.08-0.98 4.1-1.59 6.1-0.62 2-1.22 3.99-2.07 5.91-0.81 1.93-1.7 3.84-2.27 5.86-0.6 2-0.98 4.07-1.36 6.13l-1.17-0.52c0.89-1.6 1.92-3.13 3.04-4.58 1.11-1.46 2.31-2.86 3.66-4.11 1.32-1.28 2.79-2.39 4.26-3.48 1.52-1.03 3.09-1.97 4.76-2.72l0.1 0.15c-1.35 1.22-2.71 2.4-3.99 3.64-1.33 1.19-2.55 2.49-3.79 3.75-1.21 1.29-2.43 2.57-3.6 3.9a84.303 84.303 0 0 0-3.35 4.15l-2.56 3.33 1.39-3.86c0.72-1.98 1.48-3.94 2.08-5.95 0.63-2 0.99-4.08 1.49-6.13 0.46-2.06 1.22-4.03 2.01-5.97 0.8-1.95 1.71-3.85 2.8-5.67l0.16 0.07zM620.43 378.83c2.86-0.66 4.52-3.14 7.07-4.83 2.59-1.66 5.44-2.41 7.93-3.65 5.14-2.42 9.83-6.08 14.91-8.92 5.04-2.94 10.25-5.5 15.56-7.89 5.35-2.29 10.79-4.35 16.4-5.96l0.07 0.17c-5.17 2.68-10.42 5.13-15.67 7.57l-15.89 7c-2.64 1.18-5.21 2.52-7.55 4.21-2.35 1.68-4.52 3.65-7.11 5.16-2.62 1.53-5.5 2.18-7.91 3.51-1.19 0.66-2.35 1.54-3.59 2.35-1.23 0.79-2.7 1.49-4.2 1.44l-0.02-0.16z" fill="#302A27" /><path d="M387.43 336.74c1.95 3.52 4.7 6.41 7.83 8.82 3.11 2.44 6.54 4.49 9.88 6.72 6.76 4.45 12.78 9.92 18.48 15.6 2.87 2.84 5.59 5.82 8.25 8.82 2.68 3 5.35 6.01 7.9 9.13 5.06 6.27 9.82 12.86 13.52 20.04l-0.16 0.1c-4.68-6.55-9.69-12.77-14.87-18.89l-15.39-18.52c-2.6-3.05-5.38-5.95-8.49-8.48-3.1-2.55-6.6-4.49-10.07-6.51-3.45-2.05-6.88-4.24-9.97-6.92-1.53-1.35-2.96-2.84-4.2-4.47-1.22-1.65-2.21-3.46-2.89-5.37l0.18-0.07z" fill="#302A27" /></svg>